<svg id="Capa_1" enable-background="new 0 0 512 512" height="512" viewBox="0 0 512 512" width="512" xmlns="http://www.w3.org/2000/svg"><g><g><g><path d="m223.904 289.119c-4.142 0-7.5-3.358-7.5-7.5v-12c0-4.142 3.358-7.5 7.5-7.5s7.5 3.358 7.5 7.5v12c0 4.142-3.358 7.5-7.5 7.5z"/></g><g><path d="m348.802 289.119c-4.142 0-7.5-3.358-7.5-7.5v-12c0-4.142 3.358-7.5 7.5-7.5s7.5 3.358 7.5 7.5v12c0 4.142-3.358 7.5-7.5 7.5z"/></g><g><path d="m286.352 296.262c-8.479 0-16.54-3.671-22.118-10.073-2.721-3.123-2.396-7.86.727-10.582 3.122-2.721 7.861-2.396 10.582.727 2.729 3.131 6.668 4.927 10.81 4.927s8.081-1.796 10.81-4.927c2.721-3.124 7.458-3.448 10.582-.727 3.123 2.721 3.448 7.458.727 10.582-5.58 6.401-13.641 10.073-22.12 10.073z"/></g></g><path d="m474.983 232.206c5.193-6.407 7.547-14.357 6.628-22.366l-1.429-12.77c-1.712-14.934-14.153-26.345-28.912-27.525-9.921-24.147-25.234-46.183-44.48-63.914-3.046-2.807-7.791-2.612-10.598.434s-2.612 7.792.435 10.598c16.38 15.091 29.654 33.583 38.747 53.863-99.066 8.773-199.348 8.79-298.419.051 26.156-58.402 85.064-97.077 149.224-97.077 30.652 0 60.531 8.574 86.405 24.796 3.51 2.201 8.138 1.138 10.338-2.371 2.2-3.51 1.139-8.138-2.371-10.338-6.374-3.996-12.98-7.543-19.757-10.678.094-1.454.144-2.912.144-4.364.002-38.899-33.311-70.545-74.258-70.545-40.946 0-74.259 31.646-74.259 70.545 0 1.29.045 2.584.119 3.876-9.872 4.501-19.375 9.924-28.399 16.251-28.177 19.755-49.842 46.861-62.91 78.559-.305-.244-.625-.474-.975-.673l-47.491-27.088c-13.637-7.778-31.059-3.012-38.836 10.625-7.778 13.636-3.012 31.058 10.625 38.836l26.928 15.359-26.928 15.359c-6.585 3.756-11.32 9.873-13.331 17.224s-1.05 15.026 2.707 21.612 9.873 11.32 17.224 13.331c2.513.688 5.063 1.028 7.595 1.028 4.875 0 9.683-1.262 14.017-3.734l25.058-14.293c-.119 1.312-.181 2.634-.181 3.963 0 24.031 19.55 43.581 43.581 43.581.67 0 1.34-.018 2.009-.049 4.207 11.306 9.752 22.137 16.62 32.271 1.45 2.14 3.812 3.293 6.215 3.293 1.448 0 2.912-.419 4.201-1.292 3.429-2.324 4.325-6.987 2.001-10.416-15.433-22.773-23.59-49.413-23.59-77.039 0-1.535.029-3.078.079-4.618 45.56 3.534 91.334 5.304 137.109 5.304 45.982 0 91.963-1.788 137.726-5.354.052 1.557.085 3.115.085 4.667 0 75.818-61.682 137.5-137.5 137.5-35.563 0-69.301-13.528-94.998-38.093-2.995-2.863-7.742-2.755-10.604.239s-2.755 7.742.239 10.604c13.221 12.638 28.362 22.637 44.732 29.732-6.286 3.372-12.291 7.263-17.94 11.628-.017.012-.035.021-.051.033-.216.155-.42.32-.614.493-6.974 5.463-13.406 11.637-19.141 18.445-13.927 16.533-23.511 36.427-27.717 57.532-1.604 8.047.471 16.312 5.691 22.675 5.258 6.409 13.024 10.084 21.308 10.084h54.475.006.008 50.374.006.008 93.311c8.284 0 16.05-3.675 21.307-10.083 5.221-6.363 7.295-14.628 5.691-22.675-5.969-29.957-22.751-56.695-46.263-75.438-.301-.308-.626-.599-.987-.859-.192-.138-.389-.263-.589-.38-5.555-4.289-11.466-8.144-17.693-11.49 37.905-16.467 67.861-47.891 82.373-86.786.689.032 1.378.072 2.065.072 24.031 0 43.581-19.55 43.581-43.581 0-8.034-2.201-15.798-6.291-22.548 2.438-1.694 4.642-3.713 6.517-6.026zm-188.303-217.206c32.057 0 58.231 23.986 59.212 53.814-19.051-6.787-39.221-10.314-59.713-10.314-20.219 0-39.996 3.378-58.7 9.918 1.199-29.644 27.287-53.418 59.201-53.418zm-30.473 482 70.854-98.487c8.221 3.174 15.968 7.296 23.124 12.213l-62.067 86.274zm-10.609-98.549 31.514 43.805-15.955 22.177-38.812-53.948c6.894-4.661 14.363-8.61 22.32-11.736.3-.118.584-.259.86-.41.027.037.047.075.073.112zm60.211 3.917-19.457 27.045-19.422-26.996c6.342.798 12.767 1.212 19.249 1.212 6.651-.001 13.202-.431 19.63-1.261zm-128.435 90.035c-2.36-2.877-3.299-6.605-2.577-10.23 4.902-24.604 17.575-46.336 35.704-62.468l41.418 57.571-14.191 19.724h-50.644c-3.774 0-7.313-1.676-9.71-4.597zm220.188-10.23c.723 3.625-.217 7.353-2.577 10.23-2.397 2.921-5.936 4.597-9.71 4.597h-78.678l55.38-76.978c17.993 16.208 30.771 37.994 35.585 62.151zm-350.604-322.648c3.68-6.452 11.922-8.707 18.375-5.027l38.057 21.707c-6.394 4.985-10.862 12.358-11.839 20.885l-.355 3.175-39.211-22.365c-6.452-3.68-8.706-11.922-5.027-18.375zm18.375 98.555c-3.105 1.771-6.736 2.221-10.221 1.268-3.486-.954-6.382-3.189-8.153-6.294-3.68-6.452-1.425-14.695 5.027-18.375l34.634-19.755 3.554 2.027c.698 5.507 2.937 10.762 6.58 15.256 1.517 1.871 3.252 3.547 5.145 5.018zm73.161 31.146c-14.484-1.379-25.852-13.609-25.852-28.448 0-6.128 1.956-12.035 5.55-16.92.204.023.407.054.613.073 4.994.474 9.993.918 14.993 1.349-.073 1.95-.119 3.904-.119 5.847 0 12.978 1.642 25.756 4.815 38.099zm-18.275-60.227c-4.719-.446-8.914-2.662-11.813-6.239-2.635-3.25-3.834-7.24-3.374-11.252l1.424-12.729c.939-8.196 8.186-14.343 16.528-14.343.531 0 1.067.025 1.606.076 107.017 10.146 215.54 10.146 322.555 0 8.998-.852 17.137 5.549 18.134 14.247l1.429 12.77c.458 3.992-.741 7.981-3.376 11.232-2.9 3.577-7.095 5.792-11.814 6.239 0 0-.001 0-.002 0-109.917 10.419-221.38 10.42-331.297-.001zm339.542 31.78c0 14.855-11.393 27.095-25.9 28.451 3.145-12.183 4.819-24.95 4.819-38.102 0-1.962-.042-3.932-.117-5.901 4.791-.415 9.581-.841 14.367-1.295.41-.039.818-.093 1.225-.147 3.63 4.899 5.606 10.825 5.606 16.994z"/></g></svg>