<svg id="Layer_1" enable-background="new 0 0 512 512" height="512" viewBox="0 0 512 512" width="512" xmlns="http://www.w3.org/2000/svg"><g><g><path clip-rule="evenodd" d="m169.234 133.217c-19.02 30.161-28.516 64.772-30.047 103.21l64.373 23.188 64.628-23.188c-1.531-38.438-11.027-73.049-30.018-103.21l-37.105-14.655z" fill="#ffd772" fill-rule="evenodd"/></g><g><path clip-rule="evenodd" d="m179.24 7.5-8.221 87.506 32.683 19.105 32.654-19.105-8.22-87.506z" fill="#bed8fb" fill-rule="evenodd"/></g><g><path clip-rule="evenodd" d="m208.578 7.5 8.22 87.506h1.786 17.772l-8.22-87.506z" fill="#8eaadf" fill-rule="evenodd"/></g><g><path clip-rule="evenodd" d="m217.421 133.217c18.992 30.161 28.516 64.772 30.018 103.21h20.749c-1.531-38.438-11.027-73.049-30.018-103.21-9.042 0-11.735 0-20.749 0z" fill="#fbba58" fill-rule="evenodd"/></g><g><path clip-rule="evenodd" d="m161.58 102.631v22.961c0 4.195 3.43 7.625 7.653 7.625h34.468 34.468c4.195 0 7.625-3.43 7.625-7.625v-22.961c0-4.195-3.43-7.625-7.625-7.625h-1.814-65.337-1.786c-4.222 0-7.652 3.43-7.652 7.625z" fill="#e29d7b" fill-rule="evenodd"/></g><g><path clip-rule="evenodd" d="m228.561 114.111v11.48c0 4.195-3.43 7.625-7.625 7.625h17.234c4.195 0 7.625-3.43 7.625-7.625v-22.961c0-4.195-3.43-7.625-7.625-7.625h-1.814-15.42c4.195 0 7.625 3.43 7.625 7.625z" fill="#ce8b6b" fill-rule="evenodd"/></g><g><path clip-rule="evenodd" d="m210.732 423.31h126.677v51.771h-126.677z" fill="#f9f7f8" fill-rule="evenodd"/></g><g><path clip-rule="evenodd" d="m210.732 430.034h126.677c46.969 0 98.502-48.728 98.502-95.698v-49.238l-143.741-11.48-179.967 11.48v49.238c0 14.967 5.244 30.104 13.889 43.795 19.926 38.07 52.524 51.903 84.64 51.903z" fill="#a7e9a6" fill-rule="evenodd"/></g><g><path clip-rule="evenodd" d="m268.189 236.427h-41.47-23.017-23.045-41.47-20.267c-3.685 0-6.718 3.033-6.718 6.718v41.953h323.709v-41.953c0-3.685-3.005-6.718-6.718-6.718h-152.982z" fill="#f9f7f8" fill-rule="evenodd"/></g><g><path clip-rule="evenodd" d="m372.898 334.336c0 46.97-51.561 95.698-98.53 95.698h63.041c46.969 0 98.502-48.728 98.502-95.698v-49.238h-63.013z" fill="#7fdbae" fill-rule="evenodd"/></g><g><path clip-rule="evenodd" d="m372.898 243.145v41.953h63.013v-41.953c0-3.685-3.005-6.718-6.718-6.718h-63.013c3.685 0 6.718 3.033 6.718 6.718z" fill="#e5e4ed" fill-rule="evenodd"/></g><g><path clip-rule="evenodd" d="m314.364 463.256v5.102h23.045v-19.162-19.162h-63.041-63.636v19.162h92.237c9.836 0 11.395 5.357 11.395 14.06z" fill="#e5e4ed" fill-rule="evenodd"/></g><g><path clip-rule="evenodd" d="m181.649 433.237c13.918-24.605 16.044-52.895 8.192-79.115-2.438-8.164-3.912-8.986-12.132-6.888-21.713 5.528-41.186 17.49-55.189 35.15-8.617 33.704 14.683 60.718 25.341 84.331.652.113 1.304.255 1.928.397 12.897-8.448 23.895-19.815 31.86-33.875z" fill="#4fc9af" fill-rule="evenodd"/></g><g><path clip-rule="evenodd" d="m181.649 433.237c13.918-24.605 16.044-52.895 8.192-79.115-2.438-8.164-3.912-8.986-12.132-6.888-2.608.652-5.159 1.417-7.682 2.268 6.434 25.002 3.855 51.647-9.354 74.948-5.698 10.063-12.926 18.737-21.316 25.937 3.118 5.641 6.123 11.055 8.504 16.328.652.113 1.304.255 1.928.397 12.897-8.448 23.895-19.815 31.86-33.875z" fill="#26bb9e" fill-rule="evenodd"/></g><g><path clip-rule="evenodd" d="m143.496 410.078c-5.046-10.913-12.245-20.239-20.976-27.695-8.277-7.087-17.886-12.529-28.346-16.129-3.515-1.247-5.527-1.644-7.03-.794l-.482.34c-1.077.907-1.928 2.58-2.976 5.272-5.272 13.436-7.285 27.836-5.556 42.038 1.02 8.135 3.26 16.186 6.831 23.924 5.868 12.756 14.711 23.301 25.455 31.323 15.704 19.191 28.346 16.583 37.445-1.644 5.045-18.566 3.997-38.409-4.365-56.635z" fill="#a7e9a6" fill-rule="evenodd"/></g><g><path clip-rule="evenodd" d="m122.52 382.383c-8.277-7.087-17.886-12.529-28.346-16.129-3.515-1.247-5.527-1.644-7.03-.794l-.482.34c-1.077.907-1.928 2.58-2.976 5.272-.709 1.814-1.361 3.657-1.956 5.499 36.708 13.833 59.129 49.55 53.488 88.98 4.45.028 8.674.425 12.642 1.162 2.494-9.099 3.487-18.51 2.891-27.893-.624-9.751-3.005-19.446-7.257-28.743-4.053-8.759-9.467-16.469-15.959-23.046-1.614-1.615-3.286-3.174-5.015-4.648z" fill="#7fdbae" fill-rule="evenodd"/></g><g><path clip-rule="evenodd" d="m60.924 468.358c-2.211 0-3.997 1.786-3.997 3.997v28.12c0 2.211 1.786 4.025 3.997 4.025h22.166 66.584 212.622 66.584 22.195c2.211 0 3.997-1.814 3.997-4.025v-28.12c0-2.211-1.786-3.997-3.997-3.997-130.05 0-260.1 0-390.151 0z" fill="#ffd772" fill-rule="evenodd"/></g><g><path clip-rule="evenodd" d="m430.582 472.355v28.12c0 2.211-1.786 4.025-3.997 4.025h2.296 22.195c2.211 0 3.997-1.814 3.997-4.025v-28.12c0-2.211-1.786-3.997-3.997-3.997h-24.491c2.211 0 3.997 1.786 3.997 3.997z" fill="#fbba58" fill-rule="evenodd"/></g><path d="m451.075 460.858h-106.166v-23.696c22.239-2.122 45.389-13.502 64.566-31.96 21.566-20.759 33.935-46.587 33.935-70.862v-49.232c0-.003 0-.006 0-.006 0-.007 0-.01 0-.01v-41.952c0-7.848-6.362-14.21-14.21-14.21h-153.905c-2.306-34.618-11.219-65.682-26.525-92.566 2.789-2.745 4.525-6.558 4.525-10.771v-22.961c0-6.548-4.191-12.122-10.025-14.221l-7.666-81.611c-.363-3.855-3.597-6.8-7.468-6.8h-48.896c-3.871 0-7.105 2.945-7.467 6.799l-7.667 81.618c-5.835 2.104-10.025 7.673-10.025 14.214v22.961c0 4.218 1.743 8.034 4.543 10.78-15.316 26.872-24.235 57.933-26.542 92.558h-13.17c-7.848 0-14.21 6.362-14.21 14.21v91.2c0 10.225 2.218 20.797 6.472 31.225-4.599-2.484-9.442-4.639-14.528-6.392-10.465-3.651-15.87-1.172-19.938 9.155-9.401 23.904-8.889 49.42 1.441 71.842 3.437 7.472 7.932 14.439 13.301 20.688h-30.525c-6.35 0-11.497 5.147-11.497 11.497v28.119c0 6.355 5.157 11.525 11.497 11.525h192.097c4.107 0 7.688-3.165 7.811-7.27.127-4.247-3.278-7.73-7.497-7.73h-188.908v-21.142h383.145v21.143h-159.285c-4.107 0-7.688 3.165-7.811 7.27-.127 4.247 3.278 7.73 7.497 7.73h163.102c6.339 0 11.497-5.17 11.497-11.525v-28.119c-.001-6.35-5.148-11.498-11.498-11.498zm-300.771-53.926c-4.353-9.421-10.255-17.86-17.411-25.118 12.234-13.225 28.229-22.618 46.67-27.313.01-.003.02-.005.03-.008 1.312-.335 2.657.425 3.045 1.722.006.02.012.039.018.059 7.583 25.297 4.908 51.315-7.534 73.266-4.587 8.097-10.272 15.3-16.977 21.542 1.181-15.194-1.441-30.198-7.841-44.15zm37.87 30.003c.427-.754.843-1.512 1.25-2.273 4.638 1.223 9.251 2.055 13.808 2.496v23.701h-33.597c7.27-6.998 13.479-14.992 18.539-23.924zm30.058.595h111.677v23.328h-111.677zm-32.164-422.53h35.239l6.811 72.506h-48.862zm-16.988 87.631c0-.038.058-.125.153-.125h1.814.071 65.209c.007 0 .014.001.021.001s.014-.001.02-.001h1.802c.069 0 .125.056.125.125v22.961c0 .069-.056.125-.125.125h-68.937c-.095 0-.153-.087-.153-.125zm4.349 38.086h60.543c15.114 25.33 23.941 54.951 26.293 88.21h-26.176c-.4-12.433-1.74-27.078-3.956-36.044-.933-3.775-4.473-6.453-8.327-5.932-4.527.612-7.387 4.984-6.297 9.282 1.76 6.941 3.157 20.077 3.577 32.694h-30.796c.415-12.476 1.786-25.46 3.518-32.458.969-3.913-1.157-8.074-5.013-9.251-4.127-1.259-8.419 1.194-9.467 5.326-2.267 8.934-3.635 23.792-4.041 36.383h-26.175c2.352-33.272 11.188-62.892 26.317-88.21zm-53.729 151.881h69.118c4.107 0 7.688-3.165 7.811-7.27.127-4.247-3.278-7.73-7.497-7.73h-69.432v-33.668h308.71v33.668h-204.325c-4.107 0-7.688 3.165-7.811 7.27-.127 4.247 3.278 7.73 7.497 7.73h204.639v41.742c0 42.035-47.626 88.19-91 88.19h-126.68c-4.915 0-9.976-.61-15.114-1.791 7.813-21.643 8.386-45.497 1.411-68.764-3.567-11.946-9.108-15.088-21.168-12.011-18.471 4.703-34.842 13.535-48.132 25.826-5.265-10.551-8.026-21.279-8.026-31.451v-41.741zm-27.927 141.298c-8.605-18.678-8.999-40.014-1.109-60.074.107-.272.294-.76 1.065-.478 20.215 7.403 36.318 21.179 44.95 39.859 6.833 14.896 8.496 31.292 4.891 47.654h-28.605c-9.188-7.292-16.311-16.35-21.192-26.961z"/></g></svg>