<svg id="Layer_1" enable-background="new 0 0 512 512" height="512" viewBox="0 0 512 512" width="512" xmlns="http://www.w3.org/2000/svg"><g><g><path clip-rule="evenodd" d="m177.296 70.113c-84.955 0-122.712 74.072-105.364 125.238 13.975-6.066 41.216 21.402 59.783 21.402 27.61 0 50.23 7.824 67.578 20.155 10.97-7.767 24.01-13.748 39.062-17.122-7.115-29.566-8.079-96.012 17.632-120.419-18.37-17.462-44.76-29.254-78.691-29.254z" fill="#fbc7b8" fill-rule="evenodd"/></g><g><path clip-rule="evenodd" d="m198.556 174.431c-15.052 3.373-28.091 9.355-39.033 17.122.794.255 1.587.539 2.381.794 9.865 3.43 18.68 8.051 26.447 13.55 1.757-1.219 3.543-2.41 5.414-3.572 9.751-6.038 20.976-10.715 33.647-13.522-5.953-24.691.028-53.435 17.093-76.481 3.402-4.564 7.228-8.929 11.48-12.955-10.658-10.12-23.981-18.341-39.912-23.443-8.319 11.076-24.632 68.969-17.517 98.507z" fill="#fbb49e" fill-rule="evenodd"/></g><g><path clip-rule="evenodd" d="m334.676 70.113c-33.931 0-60.321 11.792-78.69 29.254-25.71 24.407-35.688 59.87-28.573 89.436 8.844-1.984 18.369 6.945 28.573 6.945 27.638 0 50.258 7.824 67.635 20.155 17.376-12.303 39.969-20.155 67.578-20.155 18.567 0 34.866-6.463 48.841-.397 17.348-51.167-20.41-125.238-105.364-125.238z" fill="#ffd772" fill-rule="evenodd"/></g><g><path clip-rule="evenodd" d="m301 74.393c76.451 1.219 113.84 62.959 106.215 112.284 12.076 1.417 23.017 4.422 32.825 8.674 17.348-51.167-20.409-125.238-105.364-125.238-12.218 0-23.443 1.53-33.676 4.28z" fill="#fbba58" fill-rule="evenodd"/></g><g><path clip-rule="evenodd" d="m391.199 185.741c-27.61 0-50.202 7.852-67.578 20.155l13.238 79.004-13.266 66.758h135.213c63.269-26.873 53.235-125.097-18.765-156.307-13.976-6.066-30.275-9.61-48.842-9.61z" fill="#a7e9a6" fill-rule="evenodd"/></g><g><path clip-rule="evenodd" d="m411.807 195.351c72 31.21 82.035 129.434 18.765 156.307h28.233c63.269-26.873 53.235-125.097-18.765-156.307-9.808-4.252-20.75-7.257-32.825-8.674-5.131-.624-10.46-.935-16.016-.935-4.847 0-9.553.255-14.088.709 12.812 1.331 24.378 4.421 34.696 8.9z" fill="#7fdbae" fill-rule="evenodd"/></g><g><path clip-rule="evenodd" d="m71.932 195.351c-72 31.21-82.007 129.434-18.737 156.307h135.213c3.203-89.974 118.857-47.794-.057-145.762-17.348-12.303-39.969-20.155-67.578-20.155-18.567 0-34.866 3.544-48.841 9.61z" fill="#bed8fb" fill-rule="evenodd"/></g><g><path clip-rule="evenodd" d="m120.773 227.213c-23.868 0-46.573 8.504-59.584 29.453-7.88 12.7-12.047 31.664-4.592 45.497 4.025 7.427 10.715 11.311 18.737 13.295 20.976 5.159 53.433 5.981 78.038 2.438-11.14-24.209-8.617-55.192 6.576-81.045-11.509-6.69-25.144-9.638-39.175-9.638z" fill="#e29d7b" fill-rule="evenodd"/></g><g><path clip-rule="evenodd" d="m159.523 191.552c-12.416 10.177-22.479 22.196-30.104 35.151-.17.283-.34.567-.482.85 11.112.964 21.77 3.912 31.011 9.298 6.888-11.736 16.384-22.423 28.403-30.955-7.767-5.499-16.583-10.12-26.447-13.55-.794-.255-1.588-.538-2.381-.794z" fill="#8eaadf" fill-rule="evenodd"/></g><g><path clip-rule="evenodd" d="m128.937 227.553c-16.923 29.254-21.572 63.328-13.209 92.469 12.954.227 26.164-.454 37.644-2.126-11.14-24.209-8.617-55.192 6.576-81.045-9.241-5.386-19.9-8.334-31.011-9.298z" fill="#ce8b6b" fill-rule="evenodd"/></g><g><path clip-rule="evenodd" d="m188.351 205.896c-12.019 8.533-21.515 19.219-28.403 30.955-15.194 25.853-17.717 56.836-6.576 81.045 6.69 14.542 18.284 26.646 35.036 33.762l67.805 13.607 67.38-13.607c16.724-7.115 28.347-19.219 35.036-33.762 11.14-24.209 8.617-55.192-6.605-81.045-6.888-11.736-16.384-22.423-28.403-30.955-17.376-12.303-39.997-20.155-67.635-20.155-10.205 0-19.729 1.077-28.573 3.062-15.053 3.345-28.092 9.326-39.062 17.093z" fill="#f9f7f8" fill-rule="evenodd"/></g><g><path clip-rule="evenodd" d="m283.68 220.665c12.019 8.533 21.543 19.219 28.432 30.955 15.194 25.853 17.717 56.836 6.576 81.045-3.203 7.002-7.569 13.408-13.068 18.993h17.972c16.724-7.115 28.347-19.219 35.036-33.762 11.14-24.209 8.617-55.192-6.605-81.045-6.888-11.736-16.384-22.423-28.403-30.955-17.376-12.303-39.997-20.155-67.635-20.155-10.205 0-19.729 1.077-28.573 3.062-12.671 2.806-23.896 7.484-33.647 13.522 7.03-1.162 14.457-1.814 22.28-1.814 27.638-.001 50.259 7.823 67.635 20.154z" fill="#e5e4ed" fill-rule="evenodd"/></g><g><path d="m149.042 146.178c-1.912 0-3.821-.729-5.283-2.19l-.028-.028c-2.929-2.929-2.929-7.678 0-10.606 2.93-2.929 7.678-2.929 10.607 0s2.942 7.692.014 10.621c-1.468 1.466-3.39 2.203-5.31 2.203z"/></g><g><path d="m157.453 114.946h-.028c-4.143 0-7.5-3.358-7.5-7.5s3.357-7.5 7.5-7.5 7.515 3.358 7.515 7.5-3.344 7.5-7.487 7.5z"/></g><g><path d="m110.349 147.113c-1.912 0-3.821-.729-5.283-2.19l-.028-.028c-2.929-2.929-2.929-7.678 0-10.606 2.93-2.929 7.678-2.929 10.607 0s2.942 7.692.014 10.621c-1.469 1.467-3.39 2.203-5.31 2.203z"/></g><g><path d="m337.971 112.458c-1.918 0-3.835-.729-5.296-2.19-2.929-2.929-2.943-7.664-.015-10.592l.028-.028c2.93-2.929 7.678-2.929 10.607 0s2.929 7.678 0 10.606c-1.468 1.468-3.397 2.204-5.324 2.204z"/></g><g><path d="m293.665 123.486c-1.918 0-3.835-.729-5.296-2.19-2.929-2.929-2.943-7.664-.015-10.592l.028-.028c2.93-2.929 7.678-2.929 10.607 0s2.929 7.678 0 10.606c-1.468 1.468-3.396 2.204-5.324 2.204z"/></g><g><path d="m371.47 136.986c-4.143 0-7.5-3.344-7.5-7.486v-.028c0-4.142 3.357-7.5 7.5-7.5s7.5 3.358 7.5 7.5-3.358 7.514-7.5 7.514z"/></g><g><path clip-rule="evenodd" d="m391.199 227.213c-14.032 0-27.666 2.948-39.175 9.638 15.222 25.853 17.745 56.836 6.605 81.045 24.576 3.543 57.062 2.721 78.01-2.438 8.05-1.984 14.74-5.868 18.737-13.295 7.483-13.833 3.288-32.798-4.592-45.497-12.983-20.948-35.689-29.453-59.585-29.453z" fill="#e29d7b" fill-rule="evenodd"/></g><g><path clip-rule="evenodd" d="m188.408 351.658h-135.213-40.706c-2.75 0-4.989 2.268-4.989 5.017v35.094c0 2.75 2.239 5.017 4.989 5.017h27.695 83.112 265.409 83.112 27.666c2.693 0 4.904-2.154 5.017-4.791v-35.548c-.113-2.636-2.324-4.791-5.017-4.791h-40.677-135.214-135.184z" fill="#ffd772" fill-rule="evenodd"/></g><g><path clip-rule="evenodd" d="m120.744 333.544c2.976 6.435 6.661 12.53 11.112 18.114h56.551c-16.753-7.115-28.347-19.219-35.036-33.762-11.48 1.672-24.69 2.353-37.644 2.126 1.332 4.649 3.005 9.157 5.017 13.522z" fill="#8eaadf" fill-rule="evenodd"/></g><g><path clip-rule="evenodd" d="m422.72 259.047c7.88 12.728 12.047 31.692 4.592 45.526-4.025 7.427-10.715 11.311-18.737 13.295-3.317.794-6.917 1.502-10.715 2.126 14.23-.369 28.006-1.871 38.778-4.536 8.05-1.984 14.74-5.868 18.737-13.295 7.483-13.833 3.288-32.798-4.592-45.497-12.983-20.949-35.688-29.453-59.584-29.453-7.427 0-14.769.822-21.742 2.608 21.515 1.418 41.414 10.149 53.263 29.226z" fill="#ce8b6b" fill-rule="evenodd"/></g><g><path clip-rule="evenodd" d="m440.664 351.658c2.665 0 4.876 2.154 4.989 4.791v35.548c-.113 2.636-2.324 4.791-4.989 4.791h31.153 27.666c2.693 0 4.904-2.154 5.017-4.791v-35.548c-.113-2.636-2.324-4.791-5.017-4.791h-40.677z" fill="#fbba58" fill-rule="evenodd"/></g><g><path clip-rule="evenodd" d="m40.184 396.787v40.111c0 2.75 2.239 4.989 4.989 4.989h73.106c2.75 0 5.017-2.239 5.017-4.989v-40.111z" fill="#e29d7b" fill-rule="evenodd"/></g><g><path clip-rule="evenodd" d="m388.704 396.787v40.111c0 2.75 2.239 4.989 4.989 4.989h73.106c2.75 0 5.017-2.239 5.017-4.989v-40.111h-31.153z" fill="#e29d7b" fill-rule="evenodd"/></g><g><path clip-rule="evenodd" d="m99.881 428.763v13.125h18.397c2.75 0 5.017-2.239 5.017-4.989v-40.111h-83.111v15.846h48.813c11.848-.001 10.884 5.017 10.884 16.129z" fill="#ce8b6b" fill-rule="evenodd"/></g><g><path clip-rule="evenodd" d="m448.402 428.763v13.125h18.397c2.75 0 5.017-2.239 5.017-4.989v-40.111h-83.112v15.846h48.813c11.849-.001 10.885 5.017 10.885 16.129z" fill="#ce8b6b" fill-rule="evenodd"/></g><g><path d="m269.986 239.712-.028.028c-2.929 2.929-2.914 7.664.015 10.592 1.461 1.461 3.378 2.19 5.296 2.19 1.928 0 3.856-.736 5.325-2.204 2.929-2.929 2.929-7.678 0-10.606-2.93-2.928-7.678-2.928-10.608 0z"/><path d="m307.658 289.263-.028.028c-2.929 2.929-2.914 7.664.015 10.592 1.461 1.461 3.378 2.19 5.296 2.19 1.928 0 3.856-.736 5.325-2.204 2.929-2.929 2.929-7.678 0-10.606-2.93-2.929-7.678-2.929-10.608 0z"/><path d="m307.829 246.459-.028.028c-2.929 2.929-2.914 7.664.015 10.592 1.461 1.461 3.378 2.19 5.296 2.19 1.928 0 3.856-.736 5.325-2.204 2.929-2.929 2.929-7.678 0-10.606-2.93-2.929-7.678-2.929-10.608 0z"/><path d="m499.482 344.158h-15.453c7.239-6.766 13.05-14.946 17.181-24.354 7.077-16.117 8.854-35.407 5.004-54.317-5.886-28.912-25.141-57.993-57.177-74.206 6.689-26.733.386-57.55-17.135-82.008-21.555-30.09-56.084-46.661-97.226-46.661-30.68 0-57.906 9.358-78.699 26.714-20.926-17.498-47.968-26.714-78.681-26.714-13.883 0-27.123 1.894-39.353 5.628-3.962 1.209-6.192 5.402-4.982 9.363 1.209 3.962 5.405 6.193 9.363 4.982 10.809-3.3 22.574-4.974 34.972-4.974 26.494 0 49.747 7.666 67.783 22.205-1.616 1.791-3.183 3.636-4.688 5.546-17.909 22.738-25.765 51.349-21.697 77.894-11.295 3.23-21.414 7.894-30.34 13.625-19.108-12.206-42.347-18.641-67.582-18.641-16.263 0-30.868 2.574-43.799 7.084-6.663-30.778 7.146-66.367 34.748-87.264 3.302-2.5 3.952-7.204 1.452-10.506-2.499-3.303-7.204-3.953-10.507-1.453-17.635 13.353-30.546 31.46-37.336 52.364-5.741 17.674-6.532 36.165-2.371 52.807-32.044 16.213-51.303 45.301-57.189 74.221-3.849 18.91-2.069 38.199 5.009 54.314 4.132 9.406 9.944 17.586 17.184 24.351h-15.474c-6.886 0-12.489 5.615-12.489 12.517v35.094c0 6.902 5.603 12.518 12.489 12.518h20.194v32.611c0 6.887 5.603 12.489 12.489 12.489h73.105c6.902 0 12.518-5.603 12.518-12.489v-32.611h106.566c4.143 0 7.5-3.358 7.5-7.5s-3.357-7.5-7.5-7.5h-222.361v-30.129h482v30.129h-224.573c-4.143 0-7.5 3.358-7.5 7.5s3.357 7.5 7.5 7.5h108.777v32.611c0 6.887 5.603 12.489 12.489 12.489h73.105c6.902 0 12.518-5.603 12.518-12.489v-32.611h20.166c6.902 0 12.518-5.615 12.518-12.518v-35.094c0-6.902-5.615-12.517-12.518-12.517zm-383.686 90.23h-68.112v-30.101h68.112zm375.72-165.908c6.85 33.646-6.609 63.169-34.319 75.678h-108.38c5.597-5.232 10.342-11.308 14.111-18.149 9.02 1.042 18.67 1.56 28.272 1.56 17.292 0 34.396-1.653 47.234-4.828 11.006-2.713 18.929-8.441 23.538-17.008 9.037-16.703 4.093-38.665-4.813-53.017-13.188-21.282-36.613-33.002-65.959-33.002-13.347 0-25.826 2.538-36.536 7.372-5.019-7.372-11.062-14.292-18.117-20.476 15.776-8.866 34.104-13.369 54.653-13.369 58.716 0 92.692 37.788 100.316 75.239zm-301.499 75.678c-27.712-12.509-41.171-42.035-34.32-75.686 7.623-37.447 41.59-75.231 100.289-75.231 58.711 0 92.685 37.793 100.31 75.249 6.85 33.643-6.607 63.162-34.312 75.668zm-47.072-32.59c-22.425 2.07-48.753.805-65.812-3.391-6.892-1.705-11.322-4.751-13.935-9.573-6.135-11.382-2.039-27.668 4.36-37.982 14.001-22.543 39.35-25.91 53.213-25.91 10.639 0 20.499 1.863 28.94 5.416-4.062 8.241-6.975 16.803-8.716 25.351-3.212 15.791-2.49 31.839 1.95 46.089zm228.048-46.071c-1.741-8.554-4.657-17.121-8.722-25.367 8.454-3.553 18.309-5.416 28.928-5.416 13.877 0 39.241 3.365 53.211 25.907 6.41 10.33 10.512 26.619 4.36 37.989-2.596 4.825-7.021 7.864-13.933 9.568-16.994 4.203-43.314 5.467-65.789 3.393 4.438-14.247 5.16-30.289 1.945-46.074zm-118.818-150.852c18.809-23.88 48.108-37.032 82.501-37.032 36.172 0 66.37 14.346 85.032 40.396 14.487 20.222 20.06 45.339 15.32 67.325-12.938-4.515-27.554-7.092-43.829-7.092-25.234 0-48.472 6.435-67.58 18.64-17.832-11.446-40.419-18.64-67.634-18.64-7.928 0-15.459.618-22.599 1.766-2.998-22.022 3.903-46.463 18.789-65.363zm-231.706 153.84c7.623-37.453 41.594-75.244 100.304-75.244 20.551 0 38.88 4.504 54.657 13.371-7.053 6.183-13.094 13.102-18.112 20.473-10.695-4.834-23.178-7.372-36.546-7.372-29.316 0-52.74 11.718-65.957 32.998-8.896 14.334-13.836 36.285-4.813 53.025 4.643 8.568 12.559 14.288 23.539 17.005 12.893 3.17 30.02 4.821 47.304 4.821 9.595 0 19.229-.517 28.223-1.556 3.77 6.843 8.516 12.919 14.115 18.152h-108.38c-27.717-12.506-41.181-42.027-34.334-75.673zm443.847 165.903h-68.112v-30.101h68.112z"/></g></g></svg>