<svg id="Layer_1" enable-background="new 0 0 512 512" height="512" viewBox="0 0 512 512" width="512" xmlns="http://www.w3.org/2000/svg"><g><g><path clip-rule="evenodd" d="m30.546 247.086 54.964 16.301 54.851-16.301c.794-5.5.68-11.311-.595-17.322-1.162-5.613-3.345-11.396-6.69-17.265-2.636-4.621-6.491-9.866-11.225-15.28-21.884-25.118-62.249-53.864-83.736-41.645-21.091 12.02-17.547 59.817-7.569 91.512z" fill="#f9f7f8" fill-rule="evenodd"/></g><g><path clip-rule="evenodd" d="m131.601 108.003 50.712 1.247 17.065.425c10.517-14.6 12.813-25.996-6.491-28.066h-66.614v21.971c-.001 2.411 2.408 4.338 5.328 4.423z" fill="#e29d7b" fill-rule="evenodd"/></g><g><path clip-rule="evenodd" d="m322.544 112.766 176.627 4.423c2.92.085 5.329-1.984 5.329-4.423v-31.156h-194.514c-8.135 7.598-11.48 21.801 6.009 31.014z" fill="#e29d7b" fill-rule="evenodd"/></g><g><path clip-rule="evenodd" d="m290.058 81.61h19.928 194.514v-31.184c0-2.438-2.409-4.508-5.329-4.423l-367.57 9.214c-2.92.057-5.329 1.984-5.329 4.423v21.97h66.614 29.282 9.354 10.573 9.354 29.282z" fill="#e29d7b" fill-rule="evenodd"/></g><g><path clip-rule="evenodd" d="m61.982 247.086h48.444c1.871-6.35 1.247-13.381-2.296-19.589-6.888-12.105-22.28-16.358-34.413-9.44-10.374 5.896-14.966 18.058-11.735 29.029z" fill="#ffd772" fill-rule="evenodd"/></g><g><path clip-rule="evenodd" d="m186.537 247.086c.85-5.075 9.439-5.528 12.983-11.482 18.68-31.326-7.483-53.014-7.002-79.492-.028-2.353-5.698-4.621-5.386-6.832-2.041-1.134-4.167-1.956-6.435-2.41-20.268-4.054-44.079 23.303-58.847 50.349-6.435 10.801 9.014 49.867 15.987 49.867l25.47 16.301z" fill="#f9f7f8" fill-rule="evenodd"/></g><g><path clip-rule="evenodd" d="m125.932 431.102 92.948 17.435 92.977-17.435c41.669-17.492 74.75-51.738 90.652-94.205l-175.89-22.68-191.339 22.68c15.902 42.468 48.982 76.714 90.652 94.205z" fill="#fbc7b8" fill-rule="evenodd"/></g><g><path clip-rule="evenodd" d="m378.925 195.206c-19.672-7.569-42.123-5.642-62.958 4.337-14.825 21.772-22.932 28.491-12.331 47.542l45.156 19.703 62.419-19.703c4.734-26.422-10.602-41.589-27.014-49.583-1.729-.85-3.486-1.615-5.272-2.296z" fill="#e29d7b" fill-rule="evenodd"/></g><g><path clip-rule="evenodd" d="m311.857 431.102c41.669-17.492 74.75-51.738 90.652-94.205h-39.912c-15.931 42.468-48.983 76.714-90.652 94.205z" fill="#fbb49e" fill-rule="evenodd"/></g><g><path clip-rule="evenodd" d="m121.85 197.219c-21.884-25.118-62.249-53.864-83.736-41.645-3.203 1.814-5.839 4.479-7.965 7.768 22.365-5.075 57.827 20.922 77.84 43.913 4.734 5.386 8.589 10.631 11.225 15.252 3.317 5.868 5.499 11.652 6.69 17.293.51 2.466.85 4.904.992 7.286h13.465c.794-5.5.68-11.311-.595-17.322-1.162-5.613-3.345-11.396-6.69-17.265-2.637-4.62-6.492-9.865-11.226-15.28z" fill="#e5e4ed" fill-rule="evenodd"/></g><g><path clip-rule="evenodd" d="m186.707 156.112c-.028-.255-.028-.51-.028-.765 0 .255 0 .51.028.765zm6.179 74.531c18.68-31.326-6.69-48.024-6.18-74.531-.028-.255-.028-.51-.028-.765 0-.34 0-.68.028-1.049.028-1.701.198-3.374.425-5.018-2.041-1.134-4.167-1.956-6.435-2.41-3.09-.624-6.265-.51-9.468.227-.085 1.276-.142 2.58-.113 3.912-.482 25.997 23.896 42.553 7.228 72.745 6.009 5.84 9.609 14.685 8.192 23.332.852-5.075 2.808-10.489 6.351-16.443z" fill="#e5e4ed" fill-rule="evenodd"/></g><g><path clip-rule="evenodd" d="m108.13 227.496c-6.888-12.105-22.28-16.358-34.413-9.44-3.43 1.956-6.265 4.593-8.362 7.683 10.97-3.175 23.046 1.446 28.913 11.765 1.729 3.062 2.778 6.322 3.146 9.582h13.011c1.872-6.35 1.249-13.381-2.295-19.59z" fill="#fbba58" fill-rule="evenodd"/></g><g><path clip-rule="evenodd" d="m411.211 247.086c4.734-26.422-10.602-41.589-27.014-49.583-1.729-.85-3.487-1.616-5.272-2.296-4.507-1.729-9.184-2.977-13.918-3.714 15.704 9.355 29.792 26.507 25.228 55.593z" fill="#ce8b6b" fill-rule="evenodd"/></g><g><path clip-rule="evenodd" d="m140.36 247.086h46.177c2.211-13.381-7.625-27.272-19.814-29.682-12.189-2.438-21.742 3.118-26.958 12.36 1.276 6.01 1.389 11.822.595 17.322z" fill="#ffd772" fill-rule="evenodd"/></g><g><path clip-rule="evenodd" d="m186.537 247.086c1.417-8.647-2.183-17.492-8.192-23.332-3.288-3.203-7.313-5.5-11.622-6.35-6.917-1.389-12.954-.198-17.858 2.75 2.324-.142 20.948 14.657 20.665 26.932z" fill="#fbba58" fill-rule="evenodd"/></g><g><path clip-rule="evenodd" d="m35.28 336.897h367.229c6.69-17.832 10.346-37.109 10.346-57.181l-183.431-12.927-204.491 12.927c0 20.072 3.657 39.349 10.347 57.181z" fill="#f37c7c" fill-rule="evenodd"/></g><g><path clip-rule="evenodd" d="m402.509 336.897c6.69-17.832 10.346-37.109 10.346-57.181h-38.778-1.162c0 20.071-3.657 39.349-10.318 57.181z" fill="#ee6161" fill-rule="evenodd"/></g><g><path clip-rule="evenodd" d="m140.36 247.086h-29.934-48.444-31.436-6.746c-8.958 0-16.299 7.343-16.299 16.301 0 8.987 7.342 16.329 16.299 16.329h1.134 387.922 1.134c8.958 0 16.299-7.342 16.299-16.329 0-8.958-7.342-16.301-16.299-16.301h-2.778-107.576-29.282-29.254-29.282-29.282z" fill="#365e7d" fill-rule="evenodd"/></g><g><path clip-rule="evenodd" d="m430.289 263.387c0-8.958-7.342-16.301-16.299-16.301h-2.778-37.134c8.958 0 16.299 7.343 16.299 16.301 0 8.987-7.342 16.329-16.299 16.329h38.778 1.134c8.957 0 16.299-7.342 16.299-16.329z" fill="#2b4d66" fill-rule="evenodd"/></g><g><path clip-rule="evenodd" d="m186.537 247.086h38.608c.85-5.075 2.806-10.489 6.378-16.443 18.652-31.326-6.69-48.024-6.208-74.531-.482-26.478 24.86-43.205 6.208-74.502h-38.636c17.008 28.52-2.523 44.934-5.754 67.67-.227 1.644-.397 3.317-.425 5.018-.028.624-.028 1.219 0 1.814-.51 26.507 24.86 43.205 6.18 74.531-3.545 5.954-5.501 11.368-6.351 16.443z" fill="#ffd772" fill-rule="evenodd"/></g><g><path clip-rule="evenodd" d="m235.746 247.086h47.962c.85-5.075 2.806-10.489 6.35-16.443 18.68-31.326-6.661-48.024-6.18-74.531-.482-26.478 24.86-43.205 6.18-74.502h-47.962c18.68 31.298-6.69 48.024-6.208 74.502-.482 26.507 24.888 43.205 6.208 74.531-3.543 5.954-5.499 11.368-6.35 16.443z" fill="#ffd772" fill-rule="evenodd"/></g><g><path clip-rule="evenodd" d="m274.354 247.086h29.282c.85-5.075 2.806-10.489 6.35-16.443 7.2-12.077 7.852-21.971 5.981-31.099-3.005-14.543-12.472-27.13-12.161-43.431-.312-16.244 9.128-28.803 12.132-43.346 1.899-9.129 1.276-19.051-5.953-31.156h-29.254c18.652 31.298-6.69 48.024-6.208 74.502-.482 26.507 24.86 43.205 6.208 74.531-3.57 5.953-5.526 11.367-6.377 16.442z" fill="#fbba58" fill-rule="evenodd"/></g><g><path clip-rule="evenodd" d="m215.819 247.086h29.282c.822-5.075 2.806-10.489 6.35-16.443 18.652-31.326-6.69-48.024-6.208-74.531-.482-26.478 24.86-43.205 6.208-74.502h-29.282c18.652 31.298-6.69 48.024-6.208 74.502-.482 26.507 24.86 43.205 6.208 74.531-3.544 5.954-5.5 11.368-6.35 16.443z" fill="#fbba58" fill-rule="evenodd"/></g><g><path clip-rule="evenodd" d="m130.241 466.001h177.308c2.381 0 4.309-1.928 4.309-4.309v-30.589h-185.926v30.589c0 2.381 1.927 4.309 4.309 4.309z" fill="#f37c7c" fill-rule="evenodd"/></g><g><path clip-rule="evenodd" d="m311.857 461.691v-30.589h-39.912v30.589c0 2.381-1.956 4.309-4.309 4.309h39.912c2.381.001 4.309-1.927 4.309-4.309z" fill="#ee6161" fill-rule="evenodd"/></g><g><path d="m65.466 302.989c-2.929 2.929-2.929 7.678 0 10.606l.028.028c1.461 1.461 3.371 2.19 5.282 2.19 1.92 0 3.842-.736 5.31-2.204 2.929-2.929 2.915-7.692-.014-10.621-2.928-2.927-7.677-2.927-10.606.001z"/><path d="m114.846 302.989c-2.929 2.929-2.929 7.678 0 10.606l.028.028c1.461 1.461 3.371 2.19 5.282 2.19 1.92 0 3.842-.736 5.31-2.204 2.929-2.929 2.915-7.692-.014-10.621-2.928-2.927-7.677-2.927-10.606.001z"/><path d="m164.197 302.989c-2.929 2.929-2.929 7.678 0 10.606l.028.028c1.461 1.461 3.371 2.19 5.282 2.19 1.92 0 3.842-.736 5.31-2.204 2.929-2.929 2.915-7.692-.014-10.621-2.928-2.927-7.677-2.927-10.606.001z"/><path d="m213.577 313.596.028.028c1.461 1.461 3.371 2.19 5.282 2.19 1.92 0 3.842-.736 5.31-2.204 2.929-2.929 2.915-7.692-.014-10.621s-7.678-2.929-10.606 0c-2.929 2.929-2.929 7.678 0 10.607z"/><path d="m262.985 313.624c1.461 1.461 3.371 2.19 5.282 2.19 1.92 0 3.842-.736 5.31-2.204 2.929-2.929 2.915-7.692-.014-10.621s-7.678-2.929-10.606 0c-2.929 2.929-2.929 7.678 0 10.606z"/><path d="m312.336 313.624c1.461 1.461 3.371 2.19 5.282 2.19 1.92 0 3.842-.736 5.31-2.204 2.929-2.929 2.915-7.692-.014-10.621s-7.678-2.929-10.606 0c-2.929 2.929-2.929 7.678 0 10.606z"/><path d="m361.716 313.624c1.461 1.461 3.371 2.19 5.282 2.19 1.92 0 3.842-.736 5.31-2.204 2.929-2.929 2.915-7.692-.014-10.621s-7.678-2.929-10.606 0c-2.929 2.929-2.929 7.678 0 10.606z"/><path d="m508.423 42.129c-2.476-2.406-5.922-3.731-9.44-3.624l-367.527 9.213c-7.112.138-12.684 5.374-12.684 11.921v43.941c0 6.478 5.54 11.714 12.645 11.92l58.537 1.448c-1.009 3.075-2.261 6.199-3.581 9.489-1.63 4.059-3.356 8.377-4.71 12.998-22.156-4.014-45.18 19.306-61.201 45.258-7.907-8.001-17.078-15.782-26.392-22.197-17.189-11.839-41.494-23.78-59.669-13.44-23.997 13.677-21.826 58.589-13.705 90.737-11.661 1.529-20.696 11.523-20.696 23.594 0 10.979 7.456 20.243 17.564 22.994 1.236 31.99 11.36 62.771 29.471 89.405 17.941 26.384 42.557 47.106 71.396 60.205v25.701c0 6.512 5.297 11.809 11.809 11.809h177.308c6.511 0 11.809-5.297 11.809-11.809v-25.702c28.83-13.1 53.442-33.821 71.386-60.203 18.117-26.638 28.245-57.419 29.482-89.405 10.107-2.751 17.564-12.015 17.564-22.994 0-11.222-7.809-20.649-18.277-23.147.98-21.449-10.167-38.83-32.034-49.481-19.865-9.664-43.727-10.097-66.609-1.453-1.077-3.136-2.289-6.163-3.471-9.109-3.212-8.003-6.246-15.563-6.093-23.948.002-.091.002-.182 0-.272-.152-8.372 2.88-15.929 6.091-23.929 1.515-3.776 3.08-7.682 4.346-11.785l177.21 4.423c.129.003.257.005.386.005 3.405 0 6.698-1.311 9.084-3.629 2.307-2.24 3.577-5.187 3.577-8.296v-62.34c.001-3.111-1.27-6.057-3.576-8.298zm-374.651 58.426v-11.445h54.664c2.301 4.659 3.44 8.883 3.743 12.89zm45.445 53.669c-.014.625-.021 1.253-.011 1.889-.185 11.374 3.721 21.104 7.168 29.692 5.159 12.854 9.302 23.18 1.77 37.927-4.723-6.888-11.786-12.068-19.951-13.682-9.498-1.899-18.341.002-25.381 5.123-.955-2.146-2.02-4.276-3.218-6.381-2.232-3.923-5.177-8.125-8.648-12.425 16.013-27.531 35.481-44.697 48.271-42.143zm-.313 85.362h-30.56c-.033-2.736-.263-5.483-.691-8.23 2.892-3.964 8.325-8.45 17.615-6.594 6.538 1.292 12.1 7.801 13.636 14.824zm-137.081-77.494c8.646-4.918 24.996-.149 43.737 12.759 11.044 7.606 22.047 17.495 30.378 26.982.174.223.361.438.562.642 4.176 4.816 7.656 9.514 10.056 13.734 2.802 4.923 4.739 9.862 5.813 14.784.024.145.058.289.09.432.567 2.728.859 5.45.893 8.161h-14.389c-.058-5.479-1.511-10.885-4.315-15.798-4.324-7.6-11.345-13.06-19.77-15.376-8.434-2.319-17.27-1.207-24.867 3.125-10.375 5.897-16.465 16.648-16.572 28.05h-17.285c-8.852-31.899-8.828-69.232 5.669-77.495zm62.128 77.494h-35.487c.12-6.106 3.396-11.848 8.968-15.015 4.12-2.349 8.905-2.952 13.47-1.697 4.563 1.254 8.366 4.213 10.714 8.339 1.489 2.61 2.273 5.472 2.335 8.373zm206.326 184.016h-74.502c-4.142 0-7.5 3.358-7.5 7.5s3.358 7.5 7.5 7.5h68.582v19.898h-170.925v-19.898h70.51c4.142 0 7.5-3.358 7.5-7.5s-3.358-7.5-7.5-7.5h-76.431c-36.776-15.822-65.227-44.372-81.067-79.205h344.898c-15.842 34.827-44.292 63.377-81.065 79.205zm6.15-189.118c6.857-11.499 8.549-21.449 7.786-30.382 2.3-.939 4.602-1.781 6.902-2.503 9.475 3.925 14.072 7.248 16.524 17.056.852 3.408 3.91 5.683 7.271 5.683.602 0 1.214-.073 1.825-.226 4.019-1.004 6.462-5.077 5.458-9.095-1.89-7.562-4.947-12.909-8.809-16.949 9.673-.014 18.989 2.021 27.531 6.177 16.405 7.991 24.322 19.863 23.615 35.341h-90.77c.75-1.669 1.634-3.365 2.667-5.102zm97.562 20.102c4.852 0 8.799 3.948 8.799 8.801 0 4.869-3.947 8.83-8.799 8.83h-177.307c-4.142 0-7.5 3.358-7.5 7.5s3.358 7.5 7.5 7.5h168.474c-.694 14.575-3.399 28.741-7.903 42.181h-356.719c-4.503-13.44-7.207-27.605-7.901-42.181h171.677c4.142 0 7.5-3.358 7.5-7.5s-3.358-7.5-7.5-7.5h-180.511c-4.852 0-8.799-3.961-8.799-8.83 0-4.853 3.947-8.801 8.799-8.801zm-209.315-165.476h13.04c7.112 14.422 3.016 24.651-2.079 37.34-3.446 8.583-7.35 18.306-7.176 29.662-.174 11.369 3.73 21.095 7.178 29.681 5.514 13.735 9.87 24.583.086 41.014-2.579 4.333-4.487 8.557-5.795 12.779h-13.27c.751-1.669 1.635-3.365 2.669-5.102 13.597-22.801 6.887-39.518.967-54.267-3.214-8.008-6.251-15.573-6.089-23.96.002-.097.002-.193 0-.289-.161-8.375 2.874-15.937 6.087-23.941 4.894-12.19 10.315-25.728 4.382-42.917zm29.274 0h13.048c7.112 14.422 3.016 24.652-2.078 37.34-3.446 8.583-7.35 18.306-7.176 29.662-.174 11.369 3.73 21.095 7.178 29.681 5.514 13.735 9.869 24.583.085 41.015-2.596 4.363-4.509 8.586-5.807 12.778h-13.256c.752-1.67 1.637-3.367 2.672-5.106 13.579-22.806 6.866-39.524.944-54.275-3.214-8.006-6.25-15.569-6.098-23.956.002-.091.002-.182 0-.272-.152-8.375 2.883-15.934 6.096-23.937 4.895-12.194 10.318-25.735 4.392-42.93zm29.282 0h13.048c7.112 14.422 3.016 24.651-2.079 37.34-3.446 8.583-7.35 18.306-7.176 29.662-.174 11.369 3.73 21.095 7.178 29.681 5.514 13.735 9.87 24.583.1 40.992-2.599 4.332-4.52 8.563-5.836 12.801h-13.249c.751-1.662 1.638-3.359 2.678-5.106 13.579-22.806 6.867-39.525.945-54.275-3.214-8.006-6.25-15.569-6.098-23.956.002-.091.002-.182 0-.272-.152-8.375 2.883-15.934 6.096-23.937 4.896-12.194 10.319-25.735 4.393-42.93zm29.282 0h13.023c7.129 14.428 3.034 24.659-2.06 37.351-3.443 8.58-7.344 18.3-7.17 29.652-.174 11.365 3.728 21.087 7.172 29.67 5.512 13.736 9.866 24.586.063 41.025-2.578 4.332-4.486 8.556-5.794 12.778h-13.26c.756-1.67 1.647-3.367 2.691-5.106 13.579-22.806 6.866-39.524.944-54.275-3.214-8.006-6.25-15.569-6.098-23.956.002-.091.002-.182 0-.272-.152-8.375 2.883-15.934 6.096-23.937 4.896-12.194 10.319-25.735 4.393-42.93zm204.488 20.522-172.636-4.308c.124-5.048-.591-10.424-2.59-16.214h175.226zm0-35.522h-363.228v-11.445l363.228-9.105z"/></g></g></svg>