<svg id="Layer_1" enable-background="new 0 0 512 512" height="512" viewBox="0 0 512 512" width="512" xmlns="http://www.w3.org/2000/svg"><g><g><path clip-rule="evenodd" d="m136.58 464.277 66.186 19.814 66.158-19.814c47.025-19.417 83.619-58.903 99.152-107.8l-156.324-25.738-174.295 25.738c15.504 48.897 52.098 88.383 99.123 107.8z" fill="#fbc7b8" fill-rule="evenodd"/></g><g><path clip-rule="evenodd" d="m368.076 356.477h-40.08c-15.533 48.897-52.127 88.383-99.152 107.8h40.08c47.025-19.417 83.619-58.903 99.152-107.8z" fill="#fbb49e" fill-rule="evenodd"/></g><g><path clip-rule="evenodd" d="m40.83 274.019 161.936 15.505 159.357-15.505c.142-.567 11.508-35.943-20.976-50.314-10.658-4.705-6.519-.624-6.519-12.642 0-3.968-.482-7.795-1.361-11.48-2.608-10.885-8.9-20.352-17.461-27.042-1.559-1.219-3.231-2.353-4.932-3.373-2.976-1.786-2.183-.765-2.749-4.195-1.219-7.682-4.223-14.768-8.617-20.806-8.844-12.274-23.271-20.239-39.57-20.239-11.565 0-6.888 3.657-14.768-4.762-10.913-11.65-26.446-18.935-43.708-18.935-17.234 0-32.767 7.285-43.68 18.935-7.88 8.419-3.203 4.762-14.796 4.762-24.292 0-44.445 17.773-48.159 41.045-.567 3.43.227 2.409-2.749 4.195-14.229 8.504-23.753 24.094-23.753 41.895 0 12.019 4.138 7.937-6.519 12.642-32.485 14.371-21.118 49.747-20.976 50.314z" fill="#f9f7f8" fill-rule="evenodd"/></g><g><path clip-rule="evenodd" d="m315.807 172.54 165.026-137.478-21.542-25.824c-1.672-2.013-4.734-2.353-6.718-.624l-153.064 135.551c-17.036 16.356-4.961 43.228 16.298 28.375z" fill="#e29d7b" fill-rule="evenodd"/></g><g><path clip-rule="evenodd" d="m333.268 199.582 168.456-131.951c2.069-1.616 2.296-4.705.624-6.718l-21.514-25.852-165.027 137.479c-8.844 17.829-.85 26.22 17.461 27.042z" fill="#e29d7b" fill-rule="evenodd"/></g><g><path clip-rule="evenodd" d="m37.457 356.477h330.619c5.159-16.242 7.965-33.533 8.078-51.448l-173.388-15.505-173.416 15.505c.113 17.915 2.948 35.206 8.107 51.448z" fill="#f37c7c" fill-rule="evenodd"/></g><g><path clip-rule="evenodd" d="m139.103 503.933h127.299c1.502-.822 2.523-2.409 2.523-4.224v-35.433h-132.345v35.433c0 1.815 1.02 3.402 2.523 4.224z" fill="#f37c7c" fill-rule="evenodd"/></g><g><path clip-rule="evenodd" d="m368.076 356.477c5.159-16.242 7.965-33.533 8.078-51.448h-34.78-5.301c-.113 17.915-2.948 35.206-8.078 51.448z" fill="#ee6161" fill-rule="evenodd"/></g><g><path clip-rule="evenodd" d="m268.924 499.71v-35.433h-40.08v35.433c0 1.814-1.02 3.402-2.523 4.224h40.08c1.503-.823 2.523-2.41 2.523-4.224z" fill="#ee6161" fill-rule="evenodd"/></g><g><path clip-rule="evenodd" d="m396.988 289.524c0-8.532-6.973-15.505-15.505-15.505h-19.36-20.749c8.532 0 15.533 6.973 15.533 15.505s-7.001 15.505-15.533 15.505h34.78 5.329c8.532 0 15.505-6.973 15.505-15.505z" fill="#2b4d66" fill-rule="evenodd"/></g><g><path clip-rule="evenodd" d="m362.123 274.019c.142-.567 11.508-35.943-20.976-50.314-10.658-4.705-6.519-.624-6.519-12.642 0-3.968-.482-7.795-1.361-11.48-2.608-10.885-8.9-20.352-17.461-27.042-1.559-1.219-3.231-2.353-4.932-3.373-2.976-1.786-2.183-.765-2.749-4.195-1.219-7.682-4.223-14.768-8.617-20.806-8.844-12.274-23.271-20.239-39.57-20.239-11.565 0-6.888 3.657-14.768-4.762-10.913-11.65-26.446-18.935-43.708-18.935-7.993 0-15.647 1.559-22.648 4.422 44.049 19.842 75.483 67.067 77.269 122.71.057 1.644.085 3.316.085 4.989 0 14.513-2.012 28.516-5.754 41.669h90.96 20.749z" fill="#e5e4ed" fill-rule="evenodd"/></g><g><path clip-rule="evenodd" d="m29.35 305.029h346.804 5.329c8.532 0 15.505-6.973 15.505-15.505s-6.973-15.505-15.505-15.505h-19.36-321.293-16.78c-8.419 0-15.306 6.775-15.505 15.137v.737c.198 8.362 7.086 15.137 15.505 15.137h5.3z" fill="#365e7d" fill-rule="evenodd"/></g><g><path d="m284.318 182.574c0-4.142-3.372-7.5-7.514-7.5s-7.5 3.358-7.5 7.5 3.358 7.5 7.5 7.5h.029c4.142 0 7.485-3.357 7.485-7.5z"/><path d="m231.225 183.89c-4.142 0-7.5 3.358-7.5 7.5s3.358 7.5 7.5 7.5h.057c4.142 0 7.472-3.358 7.472-7.5s-3.387-7.5-7.529-7.5z"/><path d="m166.739 219.606c-4.142 0-7.5 3.358-7.5 7.5s3.358 7.5 7.5 7.5h.057c4.142 0 7.472-3.358 7.472-7.5s-3.387-7.5-7.529-7.5z"/><path d="m209.201 157.193h.028c4.142 0 7.486-3.358 7.486-7.5s-3.372-7.5-7.514-7.5-7.5 3.358-7.5 7.5 3.358 7.5 7.5 7.5z"/><path d="m114.896 224.737c-4.142 0-7.5 3.358-7.5 7.5s3.358 7.5 7.5 7.5h.028c4.142 0 7.486-3.358 7.486-7.5s-3.372-7.5-7.514-7.5z"/><path d="m218.856 229.669c-.01 0-.02 0-.029 0-5.572.008-10.798 2.182-14.718 6.123-2.921 2.937-2.908 7.686.029 10.607 1.463 1.455 3.376 2.182 5.289 2.182 1.926 0 3.852-.737 5.318-2.211 1.088-1.095 2.545-1.698 4.103-1.701h.008c1.568 0 3.04.609 4.146 1.715 2.929 2.929 7.678 2.929 10.606 0 2.929-2.929 2.929-7.678 0-10.606-3.939-3.941-9.177-6.109-14.752-6.109z"/><path d="m289.049 229.669c-4.142 0-7.5 3.358-7.5 7.5s3.358 7.5 7.5 7.5h.028c4.142 0 7.486-3.358 7.486-7.5s-3.372-7.5-7.514-7.5z"/><path d="m159.852 168.639c-5.568 0-10.804 2.17-14.743 6.109-2.929 2.929-2.928 7.678 0 10.607 2.93 2.929 7.678 2.928 10.607 0 1.105-1.106 2.574-1.715 4.135-1.715s3.03.609 4.136 1.715c1.464 1.464 3.384 2.197 5.303 2.197s3.839-.732 5.303-2.197c2.929-2.929 2.929-7.678 0-10.606-3.938-3.94-9.174-6.11-14.741-6.11z"/><path d="m508.109 56.113-21.28-25.539c-.078-.104-.15-.211-.235-.312-.084-.101-.177-.192-.265-.288l-21.27-25.528c-2.106-2.535-5.202-4.141-8.494-4.406-3.289-.262-6.454.772-8.964 2.96l-147.254 130.405c-10.268-10.559-24.618-16.978-40.409-16.978-3.021 0-5.156.22-6.677.443-.167-.182-1.789-1.948-2.617-2.833-12.684-13.542-30.61-21.308-49.182-21.308-18.554 0-36.469 7.767-49.156 21.31-.824.88-2.448 2.649-2.617 2.832-1.525-.223-3.669-.445-6.704-.445-27.617 0-50.849 19.633-55.461 46.731-16.491 10.192-26.7 28.47-26.7 47.905 0 1.921.092 3.508.218 4.812-.674.279-1.43.6-2.272.971-15.548 6.879-24.893 19.119-27.024 35.396-.692 5.288-.518 10.203-.038 14.277h-7.659c-12.685 0-23.005 10.32-23.005 23.005 0 12.01 9.253 21.895 21.003 22.913 3.177 68.384 44.41 128.889 107.032 156.775v30.498c0 6.777 5.526 12.291 12.318 12.291h122.735c6.777 0 12.29-5.514 12.29-12.291v-30.498c62.648-27.895 103.882-88.399 107.035-156.773 11.763-1.006 21.029-10.896 21.029-22.915 0-12.685-10.32-23.005-23.005-23.005h-10.258c.478-4.061.671-9.005-.018-14.27-2.13-16.281-11.475-28.523-27.03-35.405-.839-.371-1.594-.691-2.267-.969.125-1.304.218-2.891.218-4.812 0-2.829-.223-5.632-.643-8.39l164.856-129.129c2.578-2.013 4.192-4.932 4.546-8.219.356-3.304-.654-6.658-2.776-9.211zm-52.784-39.918 14.93 17.918-154.838 128.99c-1.087-6.324-3.196-12.232-6.126-17.584zm-187.923 440.582h-48.281c-4.142 0-7.5 3.358-7.5 7.5s3.358 7.5 7.5 7.5h42.303v25.223h-117.344v-25.223h40.432c4.142 0 7.5-3.358 7.5-7.5s-3.358-7.5-7.5-7.5h-46.41c-42.197-17.843-74.176-51.674-90.079-92.8h309.473c-15.897 41.12-47.88 74.951-90.094 92.8zm94.695-175.258c.011 0 .021.002.032.002.008 0 .016-.002.024-.002h19.33c4.414 0 8.005 3.591 8.005 8.005s-3.591 8.005-8.005 8.005h-161.341c-4.142 0-7.5 3.358-7.5 7.5s3.358 7.5 7.5 7.5h148.292c-.636 12.501-2.659 24.71-5.949 36.448h-319.452c-3.292-11.738-5.319-23.947-5.959-36.448h148.459c4.142 0 7.5-3.358 7.5-7.5s-3.358-7.5-7.5-7.5h-161.484c-4.414 0-8.005-3.591-8.005-8.005s3.591-8.005 8.005-8.005zm-5.969-15h-309.303c-1.514-9.439-1.442-27.348 18.009-35.954 1.667-.736 2.937-1.237 3.956-1.639 4.337-1.712 8.854-4.194 7.527-12.022-.208-1.227-.493-2.908-.493-5.841 0-14.461 7.702-28.048 20.111-35.464 1.76-1.058 3.538-2.028 4.694-3.795 1.129-1.726 1.278-3.674 1.604-5.651 3.211-20.122 20.35-34.727 40.752-34.727 2.979 0 4.546.277 5.691.479 6.515 1.151 8.927-1.475 12.577-5.45.56-.61 1.218-1.327 2.002-2.164 10.004-10.681 23.573-16.563 38.207-16.563 14.652 0 28.23 5.882 38.232 16.561.788.842 1.447 1.56 2.008 2.171 3.648 3.974 6.056 6.598 12.567 5.444 1.139-.202 2.7-.479 5.668-.479 20.419 0 37.57 14.604 40.788 34.768.33 2.005.488 3.971 1.66 5.706 1.159 1.715 2.913 2.667 4.641 3.705 12.399 7.41 20.101 20.996 20.101 35.458 0 2.934-.285 4.614-.493 5.841-1.327 7.829 3.189 10.311 7.527 12.022 1.02.402 2.289.903 3.951 1.637 19.46 8.61 19.531 26.517 18.016 35.957zm-19.313-79.243c-2.459-5.263-5.718-10.136-9.665-14.425l152.706-127.214 14.922 17.908z"/></g></g></svg>