<svg id="Layer_1" enable-background="new 0 0 512 512" height="512" viewBox="0 0 512 512" width="512" xmlns="http://www.w3.org/2000/svg"><g><g><path clip-rule="evenodd" d="m41.743 370.17h79.966c.964-.907 1.587-2.183 1.587-3.628v-40.112l-41.556-19.331-41.556 19.331v40.111c0 1.446.595 2.722 1.559 3.629z" fill="#e29d7b" fill-rule="evenodd"/></g><g><path clip-rule="evenodd" d="m390.263 370.17h79.966c.964-.907 1.587-2.183 1.587-3.628v-40.112l-43.816-16.929-39.296 16.929v40.111c0 1.446.596 2.722 1.559 3.629z" fill="#e29d7b" fill-rule="evenodd"/></g><g><path clip-rule="evenodd" d="m287.507 235.237c0 30.842 25.228 56.099 56.069 56.099s56.069-25.257 56.069-56.099v-38.722c0-29.623-23.273-54.058-52.413-55.958-1.219-.085-2.438-.113-3.657-.113-30.841 0-56.069 25.229-56.069 56.071v38.722z" fill="#f9f7f8" fill-rule="evenodd"/></g><g><path clip-rule="evenodd" d="m343.577 291.336h46.999 3.288c29.821 0 54.227-24.435 54.227-54.257v-42.408c0-29.821-24.406-54.228-54.227-54.228h-36.227l-10.403.113c41.499 5.727 41.414 151.631-3.657 150.78z" fill="#365e7d" fill-rule="evenodd"/></g><g><path clip-rule="evenodd" d="m369.939 140.443c29.821 0 54.255 24.407 54.255 54.228v42.408c0 29.651-24.123 53.945-53.717 54.257h10.517 9.581 3.288c29.821 0 54.227-24.435 54.227-54.257v-42.408c0-29.821-24.406-54.228-54.227-54.228z" fill="#2b4d66" fill-rule="evenodd"/></g><g><path clip-rule="evenodd" d="m343.577 176.076c-12.387 0-23.074 9.298-28.148 22.82 31.833 9.95 29.112 30.53 58.479 27.865.624-3.232.964-6.605.964-10.063-.001-22.451-14.004-40.622-31.295-40.622z" fill="#fbc7b8" fill-rule="evenodd"/></g><g><path clip-rule="evenodd" d="m334.222 177.919c11.962 5.698 20.466 20.608 20.466 38.127 0 .907-.028 1.814-.057 2.721 4.762 3.685 10.46 6.775 19.276 7.994.624-3.232.964-6.605.964-10.063 0-22.451-14.003-40.622-31.295-40.622-3.259 0-6.406.624-9.354 1.843z" fill="#fbb49e" fill-rule="evenodd"/></g><g><path clip-rule="evenodd" d="m325.236 143.533c17.83 6.208 31.635 21.204 36.142 39.743 8.164 7.342 13.493 19.56 13.493 33.421 0 3.458-.34 6.832-.964 10.063-1.956 9.893-6.69 18.341-13.096 23.84-3.6 12.586-11.537 23.415-22.054 30.729h36.68c14.598-10.148 24.208-27.043 24.208-46.093v-38.722c0-29.623-23.273-54.058-52.413-55.958-1.219-.085-2.438-.113-3.657-.113-6.405 0-12.584 1.078-18.339 3.09z" fill="#e5e4ed" fill-rule="evenodd"/></g><g><path clip-rule="evenodd" d="m312.254 216.698c0 22.423 14.032 40.622 31.323 40.622 14.598 0 26.873-12.983 30.331-30.558-27.61-3.855-24.548-25.796-58.479-27.865-2.041 5.356-3.175 11.394-3.175 17.801z" fill="#f37c7c" fill-rule="evenodd"/></g><g><path clip-rule="evenodd" d="m354.632 218.767c-.879 17.008-9.808 31.154-21.884 36.058 3.373 1.616 7.03 2.495 10.828 2.495 14.598 0 26.873-12.983 30.331-30.558-8.815-1.22-14.513-4.31-19.275-7.995z" fill="#ee6161" fill-rule="evenodd"/></g><g><path clip-rule="evenodd" d="m177.494 235.237c0 30.842 25.228 56.099 56.069 56.099s56.069-25.257 56.069-56.099v-38.722c0-29.623-23.244-54.058-52.413-55.958-1.191-.085-2.409-.113-3.657-.113-30.841 0-56.069 25.229-56.069 56.071v38.722z" fill="#f9f7f8" fill-rule="evenodd"/></g><g><path clip-rule="evenodd" d="m233.564 291.336h46.999 3.288c29.849 0 54.255-24.435 54.255-54.257v-42.408c0-29.821-24.406-54.228-54.255-54.228h-36.227l-10.403.113c41.499 5.727 41.442 151.631-3.657 150.78z" fill="#365e7d" fill-rule="evenodd"/></g><g><path clip-rule="evenodd" d="m259.926 140.443c29.849 0 54.255 24.407 54.255 54.228v42.408c0 29.651-24.123 53.945-53.688 54.257h10.517 9.553 3.288c29.849 0 54.255-24.435 54.255-54.257v-42.408c0-29.821-24.406-54.228-54.255-54.228z" fill="#2b4d66" fill-rule="evenodd"/></g><g><path clip-rule="evenodd" d="m233.564 176.076c-12.359 0-23.046 9.298-28.148 22.82 31.833 9.95 29.14 30.53 58.479 27.865.652-3.232.992-6.605.992-10.063 0-22.451-14.032-40.622-31.323-40.622z" fill="#fbc7b8" fill-rule="evenodd"/></g><g><path clip-rule="evenodd" d="m224.209 177.919c11.962 5.698 20.495 20.608 20.495 38.127 0 .907-.028 1.814-.085 2.721 4.762 3.685 10.46 6.775 19.276 7.994.652-3.232.992-6.605.992-10.063 0-22.451-14.032-40.622-31.323-40.622-3.26 0-6.407.624-9.355 1.843z" fill="#fbb49e" fill-rule="evenodd"/></g><g><path clip-rule="evenodd" d="m215.223 143.533c17.83 6.208 31.635 21.204 36.17 39.743 8.135 7.342 13.493 19.56 13.493 33.421 0 3.458-.34 6.832-.992 10.063-1.928 9.893-6.69 18.341-13.068 23.84-3.6 12.586-11.537 23.415-22.054 30.729h36.652c14.627-10.148 24.208-27.043 24.208-46.093v-38.722c0-29.623-23.244-54.058-52.413-55.958-1.191-.085-2.409-.113-3.657-.113-6.405 0-12.584 1.078-18.339 3.09z" fill="#e5e4ed" fill-rule="evenodd"/></g><g><path clip-rule="evenodd" d="m202.269 216.698c0 22.423 14.003 40.622 31.295 40.622 14.627 0 26.901-12.983 30.331-30.558-27.61-3.855-24.548-25.796-58.479-27.865-2.013 5.356-3.147 11.394-3.147 17.801z" fill="#f37c7c" fill-rule="evenodd"/></g><g><path clip-rule="evenodd" d="m244.619 218.767c-.85 17.008-9.808 31.154-21.884 36.058 3.373 1.616 7.03 2.495 10.828 2.495 14.627 0 26.901-12.983 30.331-30.558-8.815-1.22-14.513-4.31-19.275-7.995z" fill="#ee6161" fill-rule="evenodd"/></g><g><path clip-rule="evenodd" d="m67.481 235.237c0 30.842 25.257 56.099 56.098 56.099s56.069-25.257 56.069-56.099v-38.722c0-29.623-23.273-54.058-52.413-55.958-1.219-.085-2.438-.113-3.657-.113-30.841 0-56.098 25.229-56.098 56.071v38.722z" fill="#f9f7f8" fill-rule="evenodd"/></g><g><path clip-rule="evenodd" d="m123.579 291.336h46.97 3.317c29.821 0 54.227-24.435 54.227-54.257v-42.408c0-29.821-24.406-54.228-54.227-54.228h-36.227l-10.403.113c41.499 5.727 41.414 151.631-3.657 150.78z" fill="#365e7d" fill-rule="evenodd"/></g><g><path clip-rule="evenodd" d="m149.941 140.443c29.821 0 54.227 24.407 54.227 54.228v42.408c0 29.651-24.095 53.945-53.688 54.257h10.517 9.553 3.317c29.821 0 54.227-24.435 54.227-54.257v-42.408c0-29.821-24.406-54.228-54.227-54.228z" fill="#2b4d66" fill-rule="evenodd"/></g><g><path clip-rule="evenodd" d="m123.296 326.43h265.409 83.112 27.666c2.75 0 5.017-2.239 5.017-4.989v-35.122c0-2.75-2.268-4.989-5.017-4.989h-31.776-43.257-132.606-71.717-43.257-132.576-31.805c-2.75 0-4.989 2.239-4.989 4.989v35.122c0 2.75 2.239 4.989 4.989 4.989h27.695z" fill="#ffd772" fill-rule="evenodd"/></g><g><path clip-rule="evenodd" d="m471.816 326.43h-36.539-46.573v18.142h47.962c7.313 0 7.058 3.402 7.058 10.12v15.478h26.504c.964-.907 1.587-2.183 1.587-3.628v-40.112z" fill="#ce8b6b" fill-rule="evenodd"/></g><g><path clip-rule="evenodd" d="m123.296 326.43h-36.539-46.573v18.142h47.962c7.313 0 7.058 3.402 7.058 10.12v15.478h26.504c.964-.907 1.587-2.183 1.587-3.628v-40.112z" fill="#ce8b6b" fill-rule="evenodd"/></g><g><path clip-rule="evenodd" d="m123.579 176.076c-12.387 0-23.074 9.298-28.148 22.82 31.805 9.95 29.112 30.53 58.479 27.865.624-3.232.964-6.605.964-10.063 0-22.451-14.004-40.622-31.295-40.622z" fill="#fbc7b8" fill-rule="evenodd"/></g><g><path clip-rule="evenodd" d="m114.225 177.919c11.934 5.698 20.466 20.608 20.466 38.127 0 .907-.028 1.814-.057 2.721 4.762 3.685 10.46 6.775 19.276 7.994.624-3.232.964-6.605.964-10.063 0-22.451-14.003-40.622-31.295-40.622-3.26 0-6.406.624-9.354 1.843z" fill="#fbb49e" fill-rule="evenodd"/></g><g><path clip-rule="evenodd" d="m105.239 143.533c17.83 6.208 31.606 21.204 36.142 39.743 8.164 7.342 13.493 19.56 13.493 33.421 0 3.458-.34 6.832-.964 10.063-1.956 9.893-6.69 18.341-13.096 23.84-3.6 12.586-11.537 23.415-22.054 30.729h36.68c14.598-10.148 24.208-27.043 24.208-46.093v-38.722c0-29.623-23.273-54.058-52.413-55.958-1.219-.085-2.438-.113-3.657-.113-6.434 0-12.585 1.078-18.339 3.09z" fill="#e5e4ed" fill-rule="evenodd"/></g><g><path clip-rule="evenodd" d="m92.256 216.698c0 22.423 14.032 40.622 31.323 40.622 14.598 0 26.873-12.983 30.331-30.558-27.61-3.855-24.576-25.796-58.479-27.865-2.041 5.356-3.175 11.394-3.175 17.801z" fill="#f37c7c" fill-rule="evenodd"/></g><g><path clip-rule="evenodd" d="m134.634 218.767c-.879 17.008-9.808 31.154-21.884 36.058 3.373 1.616 7.002 2.495 10.828 2.495 14.598 0 26.873-12.983 30.331-30.558-8.815-1.22-14.513-4.31-19.275-7.995z" fill="#ee6161" fill-rule="evenodd"/></g><g><path d="m499.482 273.829h-56.11c7.823-10.53 12.218-23.392 12.218-36.75v-42.408c0-34.037-27.69-61.728-61.728-61.728h-36.309s-12.744-.003-13.975-.003c-10.532 0-20.832 2.621-30.064 7.61-8.81-4.844-18.92-7.607-29.666-7.607 0 0-49.06-.002-50.291-.002-10.527 0-20.823 2.619-30.052 7.604-8.804-4.841-18.906-7.601-29.642-7.601 0 0-49.058 0-50.287 0-35.068 0-63.598 28.518-63.598 63.571 0 4.142 3.358 7.5 7.5 7.5s7.5-3.358 7.5-7.5c0-26.782 21.801-48.571 48.598-48.571 26.781 0 48.569 21.789 48.569 48.571v38.723c0 15.142-7.119 29.369-19.164 38.592h-58.835c-12.046-9.223-19.164-23.45-19.164-38.592v-5.16c0-4.142-3.358-7.5-7.5-7.5s-7.5 3.358-7.5 7.5v5.16c0 14.123 4.722 27.631 13.123 38.592h-60.616c-6.886-.001-12.489 5.602-12.489 12.489v35.123c0 6.886 5.603 12.489 12.489 12.489h20.195v32.612c0 6.902 5.603 12.517 12.489 12.517h73.106c6.902 0 12.517-5.615 12.517-12.517v-32.613h118.472c4.142 0 7.5-3.358 7.5-7.5s-3.358-7.5-7.5-7.5h-234.268v-30.101h410.128.008.006 71.858v30.101h-213.121c-4.143 0-7.5 3.358-7.5 7.5s3.357 7.5 7.5 7.5h97.325v32.612c0 6.902 5.603 12.517 12.489 12.517h73.105c6.902 0 12.518-5.615 12.518-12.517v-32.612h20.166c6.902 0 12.518-5.603 12.518-12.489v-35.123c0-6.886-5.615-12.489-12.518-12.489zm-451.798 60.101h68.112v30.129h-68.112zm172.909-96.851c0 14.293-6.685 27.859-17.975 36.75h-28.592c8.401-10.961 13.123-24.469 13.123-38.592v-38.723c0-19.462-8.8-36.9-22.619-48.571h9.337c20.608 0 38.131 13.416 44.325 31.969.014.041.022.082.037.123.007.021.018.04.025.06 1.511 4.59 2.34 9.487 2.34 14.576v42.408zm61.537-1.838c0 15.149-7.107 29.374-19.134 38.588h-39.642c2.185-2.942 4.111-6.06 5.74-9.325 1.478.209 2.968.316 4.465.316 21.411 0 38.83-21.586 38.83-48.12 0-26.539-17.419-48.13-38.83-48.13-1.232 0-2.458.077-3.676.219-3.127-6.742-7.428-12.83-12.651-17.994 5.214-1.878 10.727-2.855 16.327-2.855 12.912 0 25.092 5.069 34.297 14.273 9.203 9.204 14.272 21.384 14.272 34.296v38.732zm-47.55-51.634c12.668.746 22.81 15.302 22.81 33.094 0 .258-.01.514-.015.771-5.656-2.117-9.372-5.479-13.738-9.449-2.371-2.156-4.979-4.521-8.044-6.752v-6.6c0-3.778-.36-7.471-1.013-11.064zm1.013 53.472v-16.111c4.808 4.291 10.373 8.693 18.877 11.355-3.983 10.054-11.617 17.112-20.221 17.473.884-4.147 1.344-8.407 1.344-12.717zm95.012 0c0 14.293-6.684 27.859-17.975 36.75h-28.603c8.388-10.957 13.102-24.463 13.102-38.588v-38.73c0-16.919-6.629-32.866-18.666-44.903-1.288-1.288-2.63-2.502-4.005-3.665h9.392c25.78 0 46.755 20.962 46.755 46.728zm61.545-1.838c0 15.14-7.121 29.365-19.172 38.588h-39.611c2.185-2.942 4.111-6.061 5.741-9.326 1.48.21 2.972.317 4.472.317 17.865 0 33.294-14.908 37.625-36.32.003-.013.005-.027.009-.04.019-.094.042-.187.06-.281.728-3.773 1.096-7.635 1.096-11.478 0-26.539-17.401-48.13-38.79-48.13-1.237 0-2.468.078-3.691.22-3.129-6.738-7.424-12.829-12.647-17.991 5.218-1.881 10.735-2.859 16.338-2.859 12.912 0 25.092 5.069 34.297 14.273 9.204 9.205 14.273 21.384 14.273 34.296zm-47.559-51.634c12.651.741 22.779 15.299 22.779 33.095 0 .252-.014.504-.018.756-5.637-2.119-9.346-5.474-13.704-9.437-2.371-2.156-4.978-4.521-8.043-6.752v-6.597c0-3.779-.36-7.473-1.014-11.065zm1.014 53.472v-16.114c4.816 4.298 10.392 8.709 18.921 11.37-3.993 10.299-11.686 17.121-20.265 17.466.885-4.149 1.344-8.41 1.344-12.722zm42.878-85.471c-1.288-1.288-2.63-2.502-4.005-3.665h9.385c25.766 0 46.728 20.962 46.728 46.728v42.408c0 14.311-6.683 27.876-17.972 36.75h-28.594c8.404-10.96 13.126-24.466 13.126-38.588v-38.73c-.001-16.919-6.63-32.866-18.668-44.903zm75.833 212.451h-68.112v-30.129h68.112z"/><path d="m123.579 264.82c21.391 0 38.794-21.587 38.794-48.122 0-26.534-17.403-48.122-38.794-48.122-21.407 0-38.823 21.587-38.823 48.122 0 26.534 17.416 48.122 38.823 48.122zm0-81.244c13.12 0 23.794 14.858 23.794 33.122 0 .256-.01.509-.014.764-5.645-2.118-9.361-5.476-13.726-9.442-6.338-5.758-13.359-12.127-26.621-15.091 4.291-5.783 10.133-9.353 16.567-9.353zm-22.782 23.438c11.408 1.822 16.73 6.639 22.75 12.108 5.324 4.836 11.226 10.178 20.998 13.22-4.019 10.394-11.909 17.477-20.966 17.477-12.913 0-23.823-15.168-23.823-33.122 0-3.367.366-6.618 1.041-9.683z"/></g></g></svg>