<svg id="Layer_1" enable-background="new 0 0 512 512" height="512" viewBox="0 0 512 512" width="512" xmlns="http://www.w3.org/2000/svg"><g><g><path clip-rule="evenodd" d="m255.52 227.247c22.792 1.588 48.532 19.107 62.451 36.428 14.826-18.455 38.809-38.384 64.322-38.384 3.147 0 6.407-1.871 9.185-4.167 6.463-11.481 10.234-24.692 10.375-38.781.085-6.18-.567-12.218-1.814-18.03-12.303 8.675-32.6 32.743-62.054-3.459-23.897-29.398-33.309 25.996-66.476 28.037-.935 5.471-12.303 17.236-14.287 22.254-1.305 3.316.028 13.012-1.702 16.102z" fill="#ffd772" fill-rule="evenodd"/></g><g><path clip-rule="evenodd" d="m270.658 195.383c10.29-.652 15.308-.113 37.533-24.238 9.723-10.517 20.496-12.275 30.673.227 29.454 36.23 48.872 1.616 61.175-7.059-3.969-18.483-14.316-34.671-28.603-46.095-13.607-10.858-30.786-17.435-49.524-17.633-26.959-.312-50.998 12.644-65.909 32.771-1.078 17.519-11.085 39.773 14.655 62.027z" fill="#f37c7c" fill-rule="evenodd"/></g><g><path clip-rule="evenodd" d="m194.26 267.446c6.265-7.824 62.338-47.031 67.412-46.662 4.309-7.768 7.399-16.329 8.986-25.401.737-4.252 1.134-8.59 1.191-13.041.028-3.288-.113-6.549-.482-9.724-74.414 31.893-120.168-56.074-160.507-2.069-.425 3.26-.68 6.605-.709 9.979-.17 14.741 3.629 28.604 10.375 40.596 3.062-.341 67.044 38.015 73.734 46.322z" fill="#ffd772" fill-rule="evenodd"/></g><g><path clip-rule="evenodd" d="m110.86 170.549c37.561-39.433 82.89 50.773 160.507 2.069-1.559-14.6-7.059-28.037-15.365-39.263-14.543-19.646-37.788-32.488-64.095-32.771-41.275-.454-75.661 30.078-81.047 69.965z" fill="#e29d7b" fill-rule="evenodd"/></g><g><path clip-rule="evenodd" d="m163.275 105.46c40.396 2.381 72.685 34.331 75.803 74.331.17 2.013.255 4.054.255 6.123 10.035-2.013 20.694-6.18 32.033-13.296-1.559-14.6-7.059-28.037-15.365-39.263-14.543-19.646-37.788-32.488-64.095-32.771-10.062-.114-19.701 1.616-28.631 4.876z" fill="#ce8b6b" fill-rule="evenodd"/></g><g><path clip-rule="evenodd" d="m239.334 187.076c-.17 13.778-3.77 26.733-9.979 38.016 4.564-1.588 9.355-2.778 14.287-3.544 5.953-.936 12.02-1.191 18.029-.765 4.309-7.768 7.399-16.329 8.986-25.401.737-4.309 1.134-8.675 1.191-13.041.028-3.288-.113-6.549-.482-9.724-11.339 7.116-21.998 11.283-32.033 13.296.001.37.001.766.001 1.163z" fill="#fbba58" fill-rule="evenodd"/></g><g><path clip-rule="evenodd" d="m96.799 494.634h318.407c10.29 0 18.71-8.42 18.71-18.71v-18.71l-172.243-27.385-183.584 27.384v18.71c0 10.291 8.42 18.711 18.71 18.711z" fill="#f37c7c" fill-rule="evenodd"/></g><g><path clip-rule="evenodd" d="m78.089 457.213h355.826 17.037c11.566 0 15.677-6.322 18.511-13.352l22.282-55.054-235.743-18.54-235.743 18.54 22.282 55.054c2.835 7.031 6.945 13.352 18.511 13.352z" fill="#fbc7b8" fill-rule="evenodd"/></g><g><path clip-rule="evenodd" d="m365.71 303.817c17.377-15.053 32.572-3.912 39.461 4.394 29.851 35.89 55.477-6.18 57.859-6.775 0-41.503-31.268-75.72-71.551-80.313-3.062-.369-6.152-.539-9.298-.539-25.513 0-48.249 11.821-63.075 30.277 1.134 22.197-.737 47.258 17.292 59.419 4.961 1.532 13.295 7.428 29.312-6.463z" fill="#f37c7c" fill-rule="evenodd"/></g><g><path clip-rule="evenodd" d="m319.304 351.727 62.082 14.174 64.124-14.174c10.971-13.806 17.519-31.269 17.519-50.291-2.381.595-28.008 33.65-57.859-2.24-6.889-8.306-22.083-19.419-39.461-4.394-16.017 13.891-24.351 17.009-29.312 15.479-16.555 6.945-17.405 24.21-17.093 41.446z" fill="#ffd772" fill-rule="evenodd"/></g><g><path clip-rule="evenodd" d="m406.134 224.185c10.942 17.435 17.292 38.016 17.292 60.1 0 9.582-1.191 18.88-3.43 27.754 23.104 12.729 41.077-10.121 43.033-10.602 0-36.316-23.926-67.018-56.895-77.252z" fill="#ee6161" fill-rule="evenodd"/></g><g><path clip-rule="evenodd" d="m417.899 319.296c-3.827 11.765-9.553 22.707-16.782 32.431h44.393c10.971-13.806 17.519-31.269 17.519-50.291-1.956.482-19.929 23.331-43.033 10.602-.623 2.467-1.332 4.876-2.097 7.258z" fill="#fbba58" fill-rule="evenodd"/></g><g><path clip-rule="evenodd" d="m66.495 351.727 62.451 7.938 63.727-7.938c2.806-111.27-139.501-61.064-143.697-50.291 0 19.022 6.548 36.485 17.519 50.291z" fill="#ffd772" fill-rule="evenodd"/></g><g><path clip-rule="evenodd" d="m127.273 295.341c5.613 3.997 6.889 6.945 11.85 11.68 15.11 14.458 25.06 6.832 36.002-4.904 18.738-15.932 29.369-33.253 17.774-51.227-14.798-18.483-37.561-30.305-63.075-30.305-3.147 0-6.237.17-9.298.539-40.283 4.593-71.551 38.81-71.551 80.313 14.089 4.422 26.874 19.589 51.083-2.24 8.024-7.23 18.427-10.121 27.215-3.856z" fill="#f37c7c" fill-rule="evenodd"/></g><g><path clip-rule="evenodd" d="m192.673 351.727 59.248 18.88 67.384-18.88c9.355-11.765 15.421-26.081 17.094-41.446.737-6.889.624-14.004-.482-21.177-9.355-5.358-28.858-16.499-36.002-5.33-16.754 26.223-28.178 4.593-38.157-3.147-11.594-9.043-23.16-7.739-28.773 5.131-5.358 12.218-10.914 20.553-26.335 22.339-15.166 1.758-29 5.84-30.559 5.698 2.237 14.402 8.105 27.301 16.582 37.932z" fill="#ffd772" fill-rule="evenodd"/></g><g><path clip-rule="evenodd" d="m302.918 297.042c-6.463 10.121-12.133 13.126-17.236 12.53-1.446 15.138-5.868 29.37-12.7 42.155h46.321c9.355-11.765 15.421-26.081 17.094-41.446.737-6.889.624-14.004-.482-21.177-9.354-5.358-25.853-3.232-32.997 7.938z" fill="#fbba58" fill-rule="evenodd"/></g><g><path clip-rule="evenodd" d="m209.653 321.365c15.421-1.786 20.978-10.121 26.335-22.339 5.613-12.87 17.179-14.146 28.773-5.131 9.979 7.768 21.403 29.369 38.157 3.147 7.144-11.169 23.642-13.296 32.997-7.938-2.24-14.543-8.221-27.555-16.81-38.243-13.919-17.321-34.67-28.519-57.433-30.078-5.896-.425-11.935-.198-18.029.765-20.808 3.203-38.525 14.089-50.743 29.341-11.368 14.203-17.944 32.176-17.774 51.227.057 3.855.369 7.768.964 11.68 1.558.142 18.397 9.327 33.563 7.569z" fill="#e29d7b" fill-rule="evenodd"/></g><g><path clip-rule="evenodd" d="m254.897 220.585c19.39 20.298 31.296 47.796 31.296 78.073 0 3.685-.17 7.342-.51 10.914 5.103.595 10.772-2.41 17.236-12.53 7.144-11.169 23.642-13.296 32.997-7.938-1.843-11.821-6.123-22.651-12.303-32.034-1.389-2.126-2.92-4.224-4.507-6.208-13.919-17.321-34.67-28.519-57.433-30.078-2.241-.171-4.508-.228-6.776-.199z" fill="#ce8b6b" fill-rule="evenodd"/></g><g><path clip-rule="evenodd" d="m20.259 388.807h471.487l10.857-26.79c3.43-8.448 2.778-10.291-6.548-10.291h-50.545-126.206-126.631-126.178-50.545c-9.355 0-9.979 1.843-6.548 10.291z" fill="#365e7d" fill-rule="evenodd"/></g><g><path clip-rule="evenodd" d="m390.543 457.213v18.71c0 10.291-8.419 18.71-18.71 18.71h43.373c10.29 0 18.71-8.42 18.71-18.71v-18.71h-26.336z" fill="#ee6161" fill-rule="evenodd"/></g><g><path clip-rule="evenodd" d="m448.401 388.807-22.31 55.054c-1.729 4.309-3.94 8.335-8.051 10.829-2.608 1.559-5.981 2.523-10.46 2.523h26.335 17.037c11.566 0 15.677-6.322 18.511-13.352l22.282-55.054z" fill="#fbb49e" fill-rule="evenodd"/></g><g><path clip-rule="evenodd" d="m459.259 362.018-9.525 23.501-1.332 3.289h43.344l10.857-26.79c3.43-8.448 2.778-10.291-6.548-10.291h-43.373c9.355 0 9.978 1.843 6.577 10.291z" fill="#2b4d66" fill-rule="evenodd"/></g><g><path clip-rule="evenodd" d="m120.697 221.123c13.692 15.592 22.593 37.392 23.671 61.716.085 1.644.113 3.317.113 5.018 0 7.569-.737 14.912-2.183 21.942 13.38 10.546 22.679 3.203 32.827-7.683 0-1.276.028-2.551.057-3.827.51-13.494 4.422-26.336 10.971-37.562 2.013-3.459 4.281-6.747 6.747-9.837-14.798-18.483-37.561-30.305-63.075-30.305-3.09 0-6.152.17-9.156.51.028.028.028.028.028.028z" fill="#ee6161" fill-rule="evenodd"/></g><g><path clip-rule="evenodd" d="m142.298 309.799c-3.26 16.102-10.007 30.475-19.22 41.928h69.595c-8.476-10.631-14.344-23.53-16.584-37.931-.595-3.912-.907-7.824-.964-11.68-10.149 10.886-19.447 18.229-32.827 7.683z" fill="#fbba58" fill-rule="evenodd"/></g><g><path clip-rule="evenodd" d="m297.504 104.042c32.884 10.546 57.575 39.292 62.224 74.388.369 2.863.624 5.755.737 8.675 17.746 3.77 30.588-16.442 39.574-22.793-3.969-18.483-14.316-34.671-28.603-46.095-13.607-10.858-30.786-17.435-49.524-17.633-8.505-.085-16.697 1.134-24.408 3.458z" fill="#ee6161" fill-rule="evenodd"/></g><g><path clip-rule="evenodd" d="m360.522 190.478c0 12.559-2.551 24.522-7.172 35.408 8.958-3.43 18.681-5.301 28.83-5.301 3.147 0 6.237.17 9.298.539 6.463-11.481 10.234-24.692 10.375-38.781.085-6.18-.567-12.218-1.814-18.03-8.986 6.35-21.828 26.563-39.574 22.793.029 1.104.057 2.238.057 3.372z" fill="#fbba58" fill-rule="evenodd"/></g><g><path d="m510.26 349.398c-3.482-5.172-10.195-5.172-14.206-5.172h-36.531c7.231-13.001 11.005-27.557 11.005-42.791 0-41.705-29.047-76.75-67.972-85.975 4.348-10.448 6.682-21.695 6.796-33.033.271-23.599-8.669-45.892-25.173-62.771-.995-1.018-2.013-2.006-3.048-2.969l33.569-55.388c2.124.554 4.306.845 6.507.845 2.085 0 4.187-.252 6.265-.761 6.776-1.661 12.499-5.859 16.112-11.817 3.631-5.975 4.713-13.004 3.047-19.791-1.664-6.774-5.866-12.498-11.831-16.116-5.963-3.616-12.981-4.694-19.768-3.034-6.786 1.66-12.516 5.859-16.139 11.832-6.109 10.107-4.552 22.736 2.979 31.069l-32.642 53.859c-13.937-9.117-30.184-14.118-47.231-14.302-.338-.004-.672-.006-1.009-.006-24.73 0-48.359 10.502-65.005 28.563-15.933-17.315-38.678-28.283-63.997-28.557-23.616-.238-45.905 8.689-62.776 25.185-16.874 16.498-26.307 38.58-26.561 62.173-.139 12.052 2.196 23.973 6.786 35.002-10.969 2.587-21.358 7.272-30.703 13.91-3.376 2.399-4.169 7.081-1.771 10.458 2.399 3.377 7.079 4.17 10.458 1.771 12.43-8.83 27.093-13.497 42.402-13.497 20.462 0 39.648 8.383 53.478 23.176-9.868 14.272-15.216 30.791-15.638 47.839-4.369 4.473-8.82 8.214-12.7 8.322-2.985.057-6.534-1.878-10.664-5.829-1.657-1.582-8.499-9.388-12.673-12.36-10.921-7.785-24.94-6.105-36.591 4.393-15.352 13.841-23.144 10.067-33.926 4.846-1.456-.705-2.939-1.418-4.456-2.093.752-10.927 3.929-21.579 9.308-31.078 2.041-3.605.773-8.181-2.83-10.223-3.606-2.041-8.181-.774-10.223 2.831-7.48 13.209-11.434 28.26-11.434 43.526 0 15.234 3.774 29.79 11.006 42.791h-36.529c-4.015 0-10.735 0-14.214 5.168-3.465 5.146-.949 11.343.713 15.438l33.135 81.833c1.99 4.936 7.278 18.048 25.468 18.048h9.537v11.21c0 14.453 11.757 26.211 26.21 26.211h318.407c14.453 0 26.21-11.758 26.21-26.211v-11.21h9.537c18.19 0 23.477-13.112 25.464-18.038l33.136-81.837c1.662-4.096 4.175-10.287.706-15.44zm-98.535-319.171c1.538-2.536 3.979-4.323 6.872-5.03.888-.218 1.786-.325 2.677-.325 2.011 0 3.987.548 5.746 1.614h.001c2.543 1.542 4.333 3.981 5.042 6.867.709 2.888.248 5.88-1.302 8.429-1.538 2.538-3.975 4.324-6.86 5.031s-5.871.249-8.417-1.295c-5.25-3.174-6.934-10.038-3.759-15.291zm43.715 267.745c-4.218 3.806-12.544 11.078-22.624 10.37-7.254-.516-14.615-5.207-21.873-13.933-3.301-3.98-12.369-13.353-25.257-14.422-8.662-.72-17.036 2.357-24.892 9.149-7.782 6.749-13.023 10.255-16.451 12.074-.005-4.415-.338-8.845-1.017-13.253-.005-.036-.012-.071-.018-.106-.001-.006-.002-.012-.003-.018-2.088-13.368-7.101-25.803-14.58-36.612 13.857-14.768 33.034-23.135 53.453-23.135 39.285-.001 71.447 31.043 73.262 69.886zm-1.751 19.9c-2.147 9.456-6.165 18.358-11.925 26.355h-108.495c4.583-8.299 7.805-17.267 9.548-26.534 7.236-1.517 16.078-7.053 27.798-17.217 4.684-4.049 9.343-5.91 13.832-5.54 7.218.599 12.86 6.527 14.957 9.056 9.979 11.997 20.862 18.494 32.348 19.312.821.059 1.631.086 2.432.086 7.542 0 14.167-2.491 19.505-5.518zm-138.119 26.355h-119.162c-4.04-5.618-7.263-11.804-9.572-18.353 5.497 1.728 12.082 3.215 18.823 3.215 1.614 0 3.239-.085 4.857-.273 20.026-2.319 26.958-14.501 32.348-26.791 1.063-2.438 2.948-5.5 5.893-6.25 2.967-.756 7.126.717 11.398 4.039 1.497 1.165 3.246 2.936 5.099 4.81 5.942 6.015 13.322 13.498 23.524 12.423 7.405-.784 14.097-6.007 20.46-15.964 4.252-6.649 13.521-8.292 19.774-6.697 1.685 17.629-3.103 35.421-13.442 49.841zm78.783-161.96c-.107 10.709-2.592 21.318-7.218 30.96-1.641-.091-3.292-.142-4.956-.142-23.968 0-46.51 9.57-63.085 26.512-3.345-3.398-6.972-6.564-10.895-9.436-10.679-7.819-22.706-13.039-35.324-15.483 1.612-3.989 2.941-8.09 3.959-12.271 9.445-1.16 17.479-5.154 36.864-26.171 2.642-2.856 6.574-6.22 10.375-6.116 3.479.109 6.8 3.316 8.971 5.983 9.906 12.185 19.828 18.378 30.334 18.931 13.047.694 23.18-7.654 30.944-15.159.017.796.041 1.591.031 2.392zm-73.36-74.188c.278 0 .558.001.837.005 19.589.211 37.922 8.046 51.624 22.06 8.734 8.933 14.903 19.695 18.18 31.399-1.519 1.392-3.062 2.924-4.651 4.506-6.804 6.77-14.536 14.436-22.815 14.005-5.947-.313-12.502-4.827-19.487-13.418-6.03-7.407-12.804-11.279-20.135-11.51-7.569-.236-14.937 3.437-21.867 10.933-12.472 13.521-18.582 18.451-23.472 20.378.075-1.336.13-2.674.144-4.015.193-17.92-4.989-34.666-14.033-48.71 13.885-16.168 34.282-25.633 55.675-25.633zm-181.294 20.915c14.008-13.696 32.558-21.109 52.127-20.911 35.813.387 65.412 26.552 71.402 60.654-37.195 21.14-65.992 7.857-91.504-3.921-16.317-7.534-33.038-15.242-48.872-10.592 3.738-9.376 9.412-17.96 16.847-25.23zm-9.874 84.091c-1.66 0-3.31.062-4.956.152-4.863-10.118-7.348-21.302-7.217-32.628.024-2.212.158-4.404.374-6.578 12.093-11.077 24.878-5.998 47.411 4.405 16.029 7.4 35.578 16.426 58.502 16.426 12.451 0 25.902-2.678 40.317-9.714-.482 9.694-2.894 19.233-7.061 27.96-4.873-.055-9.783.268-14.695 1.027-19.11 2.946-36.334 11.856-49.608 25.453-16.546-16.937-39.079-26.503-63.067-26.503zm66.978 45.028c11.579-15.814 28.618-26.167 47.986-29.152 19.364-2.999 38.738 1.727 54.548 13.303 12.625 9.244 21.759 21.979 26.459 36.593-10.893-.432-22.776 4.106-29.198 14.147-5.029 7.872-8.248 9.005-9.399 9.126-3.028.312-7.592-4.321-11.275-8.048-2.108-2.134-4.288-4.34-6.559-6.108-8.076-6.279-16.709-8.669-24.31-6.736-4.87 1.24-11.59 4.813-15.936 14.776-5.064 11.549-9.008 16.589-20.33 17.901-9.359 1.089-20.192-3.107-25.806-5.453-.198-2.03-.311-4.056-.342-6.076.009-.268.003-.535-.016-.802-.063-15.558 4.812-30.679 14.178-43.471zm-91.723 46.655c2.988-2.692 10.704-8.406 17.843-3.318 2.75 1.959 8.88 8.953 11.014 10.99 7.018 6.715 13.835 9.987 20.82 9.987.208 0 .417-.003.626-.009 5.122-.143 9.661-2.061 13.751-4.819 1.749 9.372 4.994 18.369 9.557 26.628h-108.457c-6.673-9.263-11.007-19.742-12.803-30.887 11.393 5.334 26.611 10.398 47.649-8.572zm321.335 171.155c0 6.181-5.029 11.21-11.209 11.21h-318.407c-6.181 0-11.209-5.029-11.209-11.21v-11.21h340.825zm60.286-94.616h-212.981c-4.143 0-7.5 3.358-7.5 7.5s3.358 7.5 7.5 7.5h206.907l-18.119 44.748c-2.413 5.987-4.654 8.657-11.555 8.657h-389.901c-6.901 0-9.142-2.671-11.559-8.667l-18.115-44.738h207.361c4.143 0 7.5-3.358 7.5-7.5s-3.358-7.5-7.5-7.5h-213.435l-8.94-22.08h50.128.009.006 429.135z"/><path d="m177.015 147.831.057.028c1.073.537 2.212.791 3.332.791 2.746 0 5.387-1.527 6.702-4.159 1.853-3.705.322-8.224-3.382-10.077-3.707-1.853-8.211-.351-10.063 3.354-1.853 3.705-.351 8.211 3.354 10.063z"/><path d="m213.392 157.964c1.462 1.461 3.371 2.19 5.283 2.19 1.92 0 3.842-.736 5.31-2.204 2.929-2.929 2.915-7.692-.014-10.621-2.93-2.929-7.678-2.929-10.608 0-2.929 2.929-2.929 7.678 0 10.607z"/><path d="m97.834 277.597c1.922 0 3.846-.739 5.318-2.211 2.929-2.929 2.9-7.706-.028-10.635-2.93-2.929-7.678-2.929-10.608 0-2.929 2.929-2.929 7.678 0 10.607l.057.057c1.457 1.457 3.358 2.182 5.261 2.182z"/><path d="m135.105 264.11c1.92 0 3.842-.736 5.31-2.204 2.929-2.929 2.915-7.692-.014-10.621-2.93-2.929-7.678-2.929-10.608 0-2.929 2.929-2.929 7.678 0 10.607l.028.028c1.463 1.461 3.372 2.19 5.284 2.19z"/><path d="m375.84 249.54c-3.706-1.853-8.211-.351-10.063 3.354-1.853 3.705-.351 8.21 3.354 10.062l.057.028c1.073.537 2.212.791 3.332.791 2.746 0 5.387-1.527 6.702-4.159 1.853-3.705.322-8.224-3.382-10.076z"/><path d="m416.075 276.96.057.028c1.073.537 2.212.791 3.332.791 2.746 0 5.387-1.527 6.702-4.159 1.853-3.705.322-8.224-3.382-10.077-3.707-1.854-8.212-.35-10.063 3.354-1.853 3.706-.35 8.211 3.354 10.063z"/><path d="m234.165 263.466.057.028c1.073.537 2.212.791 3.332.791 2.746 0 5.387-1.527 6.702-4.159 1.853-3.705.322-8.224-3.382-10.077-3.706-1.854-8.211-.35-10.063 3.354-1.852 3.706-.35 8.211 3.354 10.063z"/><path d="m275.78 266.755.057.028c1.073.537 2.212.791 3.332.791 2.746 0 5.387-1.527 6.702-4.159 1.853-3.705.322-8.224-3.382-10.077-3.706-1.853-8.211-.351-10.063 3.354s-.35 8.211 3.354 10.063z"/><path d="m203.471 289.106c1.462 1.461 3.371 2.19 5.283 2.19 1.92 0 3.842-.736 5.31-2.204 2.929-2.929 2.915-7.692-.014-10.621-2.93-2.929-7.678-2.929-10.608 0-2.929 2.929-2.929 7.678 0 10.607z"/><path d="m294.638 142.826c1.462 1.461 3.371 2.19 5.283 2.19 1.92 0 3.842-.736 5.31-2.204 2.929-2.929 2.915-7.692-.014-10.621-2.93-2.929-7.678-2.929-10.608 0-2.929 2.929-2.929 7.678 0 10.607z"/><path d="m351.334 149.204c1.462 1.461 3.371 2.19 5.283 2.19 1.92 0 3.842-.736 5.31-2.204 2.929-2.929 2.915-7.692-.014-10.621-2.93-2.929-7.678-2.929-10.608 0-2.929 2.929-2.929 7.678 0 10.607z"/></g></g></svg>