<svg id="Layer_1" enable-background="new 0 0 512 512" height="512" viewBox="0 0 512 512" width="512" xmlns="http://www.w3.org/2000/svg"><g><g><path clip-rule="evenodd" d="m477.599 412.732-443.198 10.29c-2.721.085-4.961 2.239-4.961 4.961v24.605h453.12v-34.924c0-2.721-2.24-5.017-4.961-4.932z" fill="#e29d7b" fill-rule="evenodd"/></g><g><path clip-rule="evenodd" d="m482.56 452.588h-453.12v24.605c0 2.721 2.239 4.904 4.961 4.961l443.198 10.318c2.721.057 4.961-2.239 4.961-4.961z" fill="#e29d7b" fill-rule="evenodd"/></g><g><path clip-rule="evenodd" d="m452.512 355.697c12.076 0 21.997-9.893 21.997-21.997 0-133.261 0-203.959 0-292.176 0-12.104-9.893-21.998-21.997-21.998h-423.015c-11.934 0-21.742 9.638-21.997 21.516v293.14c.255 11.878 10.063 21.516 21.997 21.516 148.791-.001 81.978-.001 423.015-.001z" fill="#f9f7f8" fill-rule="evenodd"/></g><g><path clip-rule="evenodd" d="m49.85 126.792c-10.488 14.457-9.213 34.782 3.798 47.822-14.428 14.429-14.428 37.815 0 52.272-12.699 12.7-14.23 32.373-4.564 46.745 4.989 7.399 12.217 6.662 13.663 15.676 1.276 7.852 5.443 14.769 11.367 19.616 5.499 4.536 12.558 7.257 20.211 7.257s14.684-2.721 20.211-7.257c5.924-4.847 10.063-11.764 11.339-19.616 1.474-9.014 8.674-8.277 13.663-15.676 9.666-14.372 8.164-34.045-4.564-46.745 14.457-14.457 14.457-37.844 0-52.272 13.039-13.04 14.315-33.365 3.827-47.822-3.94-5.443-3.827-4.649-3.827-11.821v-8.788c0-22.366-18.284-40.65-40.649-40.65s-40.677 18.284-40.677 40.65v8.788c0 7.172.142 6.379-3.798 11.821z" fill="#ffd772" fill-rule="evenodd"/></g><g><path clip-rule="evenodd" d="m196.146 126.792c-10.488 14.457-9.213 34.782 3.827 47.822-14.457 14.429-14.457 37.815 0 52.272-12.728 12.7-14.23 32.373-4.564 46.745 4.989 7.399 12.189 6.662 13.663 15.676 1.276 7.852 5.414 14.769 11.339 19.616 5.528 4.536 12.558 7.257 20.211 7.257s14.684-2.721 20.211-7.257c5.924-4.847 10.063-11.764 11.367-19.616 1.446-9.014 8.646-8.277 13.663-15.676 9.638-14.372 8.135-34.045-4.564-46.745 14.428-14.457 14.428-37.844 0-52.272 13.011-13.04 14.287-33.365 3.798-47.822-3.94-5.443-3.798-4.649-3.798-11.821v-8.788c0-22.366-18.312-40.65-40.677-40.65s-40.649 18.284-40.649 40.65v8.788c0 7.172.113 6.379-3.827 11.821z" fill="#ffd772" fill-rule="evenodd"/></g><g><path clip-rule="evenodd" d="m279.995 355.697c-2.324-14.826-8.391-31.862-19.162-46.773-5.528 4.536-12.558 7.257-20.211 7.257s-14.684-2.721-20.211-7.257c-10.772 14.911-16.838 31.947-19.162 46.773-1.644 10.318-1.446 19.588.255 26.278.992 3.969 1.417 5.046 4.649 4.082 4.847-1.446 17.858-5.273 34.469-23.698 19.474 21.431 23.924 20.495 32.712 22.905 3.231.879 5.414.68 6.406-3.288 1.701-6.691 1.899-15.961.255-26.279z" fill="#f37c7c" fill-rule="evenodd"/></g><g><path clip-rule="evenodd" d="m133.699 355.697c-2.324-14.826-8.391-31.862-19.162-46.773-5.528 4.536-12.558 7.257-20.211 7.257s-14.712-2.721-20.211-7.257c-10.772 14.911-16.838 31.947-19.162 46.773-1.644 10.318-1.446 19.588.227 26.278 1.02 3.969 1.446 5.046 4.677 4.082 4.847-1.446 17.83-5.273 34.469-23.698 19.474 21.431 23.896 20.495 32.712 22.905 3.231.879 5.414.68 6.406-3.288 1.701-6.691 1.871-15.961.255-26.279z" fill="#f37c7c" fill-rule="evenodd"/></g><g><path clip-rule="evenodd" d="m138.801 126.792c-3.94-5.443-3.827-4.649-3.827-11.821v-8.788c0-22.366-18.284-40.65-40.649-40.65-4.592 0-9.014.765-13.153 2.183 15.987 5.499 27.524 20.694 27.524 38.467v8.788c0 7.172-.113 6.378 3.827 11.821 10.488 14.457 9.213 34.782-3.827 47.822 14.457 14.429 14.457 37.815 0 52.272 12.728 12.7 14.23 32.373 4.564 46.745-4.989 7.399-12.189 6.662-13.663 15.676-1.276 7.852-5.414 14.769-11.339 19.616-2.154 1.758-4.535 3.26-7.087 4.422 4.025 1.814 8.476 2.835 13.153 2.835 7.654 0 14.684-2.721 20.211-7.257 5.924-4.847 10.063-11.764 11.339-19.616 1.474-9.014 8.674-8.277 13.663-15.676 9.666-14.372 8.164-34.045-4.564-46.745 14.457-14.457 14.457-37.844 0-52.272 13.041-13.039 14.316-33.364 3.828-47.822z" fill="#fbba58" fill-rule="evenodd"/></g><g><path clip-rule="evenodd" d="m281.299 174.614c13.011-13.04 14.287-33.365 3.798-47.822-3.94-5.443-3.798-4.649-3.798-11.821v-8.788c0-22.366-18.312-40.65-40.677-40.65-4.592 0-9.014.765-13.124 2.183 15.959 5.499 27.525 20.694 27.525 38.467v8.788c0 7.172-.142 6.378 3.798 11.821 10.488 14.457 9.213 34.782-3.798 47.822 14.428 14.429 14.428 37.815 0 52.272 12.699 12.7 14.23 32.373 4.564 46.745-4.989 7.399-12.217 6.662-13.663 15.676-1.276 7.852-5.443 14.769-11.367 19.616-2.154 1.758-4.507 3.26-7.058 4.422 3.997 1.814 8.447 2.835 13.124 2.835 7.654 0 14.684-2.721 20.211-7.257 5.924-4.847 10.063-11.764 11.367-19.616 1.446-9.014 8.646-8.277 13.663-15.676 9.638-14.372 8.135-34.045-4.564-46.745 14.428-14.456 14.428-37.843-.001-52.272z" fill="#fbba58" fill-rule="evenodd"/></g><g><path clip-rule="evenodd" d="m133.699 355.697c-2.324-14.826-8.391-31.862-19.162-46.773-3.572 2.92-7.795 5.103-12.387 6.265 7.115 12.444 11.367 25.683 13.238 37.532 1.616 10.318 1.417 19.588-.255 26.306-.198.709-.397 1.304-.652 1.786 4.734 2.863 8.079 3.232 12.558 4.451 3.231.879 5.414.68 6.406-3.288 1.7-6.691 1.87-15.961.254-26.279z" fill="#ee6161" fill-rule="evenodd"/></g><g><path clip-rule="evenodd" d="m279.995 355.697c-2.324-14.826-8.391-31.862-19.162-46.773-3.572 2.92-7.767 5.103-12.387 6.265 7.115 12.444 11.367 25.683 13.238 37.532 1.616 10.318 1.417 19.588-.255 26.306-.198.709-.397 1.304-.652 1.786 4.734 2.863 8.079 3.232 12.558 4.451 3.231.879 5.414.68 6.406-3.288 1.7-6.691 1.898-15.961.254-26.279z" fill="#ee6161" fill-rule="evenodd"/></g><g><path clip-rule="evenodd" d="m474.509 41.524c0-12.104-9.893-21.998-21.997-21.998h-269.263c17.15 12.218 32.428 28.517 45.099 47.907 3.883-1.247 7.994-1.899 12.274-1.899 22.365 0 40.677 18.284 40.677 40.65v8.788c0 7.172-.142 6.378 3.798 11.821 10.488 14.457 9.213 34.782-3.798 47.822 14.428 14.429 14.428 37.815 0 52.272 12.699 12.7 14.202 32.373 4.564 46.745-5.017 7.399-12.217 6.662-13.663 15.676-1.304 7.852-5.443 14.769-11.367 19.616 10.772 14.911 16.838 31.947 19.162 46.773h172.517c12.076 0 21.997-9.893 21.997-21.997 0-133.261 0-203.959 0-292.176z" fill="#e5e4ed" fill-rule="evenodd"/></g><g><path clip-rule="evenodd" d="m329.29 162.312c0 48.389 39.232 87.622 87.619 87.622 48.303 0 87.591-39.176 87.591-87.622 0-26.306-11.622-49.92-29.991-65.993-15.392-13.437-35.547-21.601-57.6-21.601-48.387 0-87.619 39.233-87.619 87.594z" fill="#fbc7b8" fill-rule="evenodd"/></g><g><path clip-rule="evenodd" d="m388.024 245.029c9.043 3.175 18.765 4.904 28.885 4.904 48.303 0 87.591-39.176 87.591-87.622 0-26.306-11.622-49.92-29.991-65.993-15.392-13.437-35.547-21.601-57.6-21.601-5.584 0-11.027.539-16.328 1.531 10.658 3.713 20.381 9.44 28.715 16.725 18.397 16.045 29.991 39.658 29.991 65.993 0 42.862-30.727 78.438-71.263 86.063z" fill="#fbb49e" fill-rule="evenodd"/></g><g><path clip-rule="evenodd" d="m416.909 110.039c-28.885 0-52.299 23.415-52.299 52.272 0 28.886 23.414 52.301 52.299 52.301 28.857 0 52.271-23.415 52.271-52.301 0-28.857-23.414-52.272-52.271-52.272z" fill="#f37c7c" fill-rule="evenodd"/></g><g><path clip-rule="evenodd" d="m469.18 162.312c0-28.858-23.414-52.272-52.271-52.272-4.677 0-9.213.595-13.521 1.758 22.337 5.953 38.778 26.306 38.778 50.515s-16.441 44.59-38.778 50.543c4.309 1.134 8.844 1.758 13.521 1.758 28.857-.002 52.271-23.416 52.271-52.302z" fill="#ee6161" fill-rule="evenodd"/></g><g><path d="m477.425 405.234-443.198 10.29c-.02 0-.04.001-.06.002-6.856.214-12.227 5.686-12.227 12.457v49.211c0 6.729 5.52 12.318 12.286 12.459l443.216 10.319c.087.001.174.002.26.002 3.221 0 6.264-1.248 8.595-3.531 2.392-2.342 3.763-5.597 3.763-8.931v-69.848c0-3.355-1.386-6.623-3.802-8.965-2.412-2.337-5.575-3.563-8.833-3.465zm-2.365 15.058v24.795h-438.12v-14.623zm-438.12 54.419v-14.624h438.12v24.824z"/><path d="m240.622 243.971c-6.36 0-12.335 2.483-16.824 6.992-2.922 2.936-2.912 7.684.023 10.606s7.684 2.912 10.606-.023c1.653-1.661 3.853-2.575 6.194-2.575s4.541.914 6.194 2.575c1.465 1.472 3.39 2.208 5.315 2.208 1.914 0 3.828-.728 5.291-2.185 2.936-2.922 2.946-7.671.024-10.606-4.488-4.509-10.463-6.992-16.823-6.992z"/><path d="m234.417 202.936c3.422-3.422 8.989-3.422 12.411 0 1.464 1.464 3.384 2.197 5.303 2.197s3.839-.732 5.304-2.197c2.929-2.929 2.929-7.678 0-10.606-9.271-9.271-24.354-9.271-33.625 0-2.929 2.929-2.929 7.678 0 10.606s7.678 2.928 10.607 0z"/><path d="m234.417 144.342c1.654-1.655 3.858-2.566 6.205-2.566s4.551.911 6.205 2.566c1.465 1.464 3.384 2.197 5.304 2.197 1.919 0 3.839-.732 5.303-2.196 2.93-2.929 2.93-7.678.001-10.607-4.488-4.488-10.458-6.959-16.813-6.959s-12.325 2.472-16.813 6.959c-2.929 2.929-2.928 7.678 0 10.607 2.931 2.928 7.678 2.928 10.608-.001z"/><path d="m94.325 243.971c-6.36 0-12.334 2.483-16.823 6.992-2.922 2.936-2.912 7.684.023 10.606s7.684 2.912 10.606-.023c1.653-1.661 3.853-2.575 6.193-2.575 2.341 0 4.541.914 6.194 2.575 1.465 1.472 3.39 2.208 5.315 2.208 1.914 0 3.828-.728 5.292-2.185 2.936-2.922 2.946-7.671.023-10.606-4.488-4.509-10.462-6.992-16.823-6.992z"/><path d="m88.12 202.936c3.422-3.421 8.989-3.422 12.411 0 1.464 1.464 3.384 2.197 5.303 2.197s3.839-.732 5.303-2.197c2.929-2.929 2.929-7.678 0-10.606-9.269-9.27-24.353-9.271-33.624 0-2.929 2.929-2.929 7.678 0 10.606s7.678 2.928 10.607 0z"/><path d="m88.121 144.342c1.654-1.655 3.858-2.566 6.205-2.566s4.551.911 6.205 2.566c1.465 1.464 3.384 2.197 5.304 2.197 1.919 0 3.839-.732 5.303-2.196 2.929-2.929 2.929-7.678 0-10.607-4.488-4.488-10.458-6.959-16.813-6.959-6.354 0-12.324 2.472-16.812 6.959-2.929 2.929-2.928 7.678 0 10.607 2.93 2.928 7.678 2.928 10.608-.001z"/><path d="m46.505 363.197c-.53 7.807-.028 14.883 1.41 20.646.749 2.915 1.672 5.887 4.072 7.886 2.881 2.398 6.604 2.531 10.061 1.501 4.849-1.446 16.869-5.031 32.2-19.973 13.972 14.461 20.068 16.579 28.268 18.592 3.706.91 7.328 2.054 11.098.649 3.816-1.422 6.144-4.859 7.104-8.695 1.443-5.744 1.95-12.807 1.424-20.606h50.662c-.526 7.797-.019 14.857 1.423 20.598.731 2.923 1.636 5.903 4.033 7.913 2.885 2.42 6.622 2.555 10.093 1.52 4.855-1.448 16.891-5.039 32.194-19.966 13.96 14.448 20.055 16.567 28.255 18.584 3.65.899 7.216 2.031 10.943.712 3.902-1.382 6.294-4.856 7.267-8.754 1.443-5.744 1.95-12.807 1.425-20.606h61.998c4.143 0 7.5-3.358 7.5-7.5s-3.357-7.5-7.5-7.5h-64.154c-2.71-12.519-7.824-25.88-15.703-38.254 4.594-5.358 7.804-12.003 9.026-19.448.318-1.986.719-2.363 3.71-4.404 2.481-1.693 5.882-4.013 8.777-8.283 10.487-15.64 9.831-36.056-.962-50.922 11.279-15.526 11.281-36.758.008-52.268 11.242-15.393 11.535-36.37.034-52.224l-.861-1.183c-.568-.778-1.203-1.647-1.454-2.058-.061-.593-.06-2.046-.059-3.457v-9.513c0-26.55-21.612-48.15-48.177-48.15-26.549 0-48.149 21.6-48.149 48.15v9.375c.001 1.458.001 2.961-.062 3.566-.247.404-.872 1.257-1.43 2.021l-.906 1.242c-11.509 15.864-11.209 36.837.046 52.225-5.515 7.545-8.491 16.607-8.491 26.126 0 9.524 2.979 18.595 8.499 26.151-10.812 14.87-11.461 35.287-.938 50.934 2.868 4.252 6.271 6.577 8.756 8.274 2.996 2.046 3.397 2.424 3.722 4.411 1.189 7.323 4.435 13.943 9.07 19.313-7.923 12.407-13.059 25.816-15.778 38.374h-54.975c-2.719-12.559-7.855-25.967-15.776-38.373 4.634-5.369 7.88-11.986 9.067-19.305.326-1.995.727-2.374 3.723-4.419 2.485-1.697 5.889-4.021 8.761-8.282 10.519-15.639 9.869-36.056-.943-50.926 5.519-7.557 8.499-16.627 8.499-26.151 0-9.52-2.977-18.581-8.491-26.126 11.254-15.388 11.555-36.361.05-52.219-.713-.978-1.692-1.989-2.18-3.103-.471-1.076-.223-2.584-.222-3.729v-9.378c0-26.55-21.6-48.15-48.149-48.15-26.565 0-48.178 21.6-48.178 48.15v9.516c.001 1.409.002 2.862-.059 3.455-.251.411-2.311 3.233-2.311 3.233-11.505 15.859-11.212 36.837.029 52.23-11.273 15.51-11.271 36.741.007 52.267-10.811 14.882-11.464 35.306-.95 50.939 2.869 4.254 6.278 6.579 8.768 8.276 2.992 2.04 3.392 2.416 3.711 4.409 1.19 7.33 4.443 13.956 9.088 19.329-7.911 12.396-13.045 25.797-15.767 38.359h-19.164c-7.994-.001-14.497-6.505-14.497-14.498v-292.176c0-7.994 6.503-14.498 14.497-14.498h59.556c4.142 0 7.5-3.358 7.5-7.5s-3.358-7.5-7.5-7.5h-59.556c-16.265 0-29.497 13.233-29.497 29.498v292.176c0 16.265 13.232 29.497 29.497 29.497zm159.901-89.486c-1.965-1.342-3.517-2.402-4.773-4.266-7.84-11.658-6.311-27.323 3.638-37.25 1.409-1.406 2.202-3.314 2.203-5.305.001-1.99-.789-3.9-2.197-5.307-5.576-5.576-8.646-12.978-8.646-20.844 0-7.863 3.069-15.256 8.641-20.817 1.409-1.406 2.201-3.314 2.202-5.305s-.789-3.9-2.197-5.307c-10.313-10.313-11.6-26.342-3.055-38.121l.866-1.188c4.064-5.556 4.389-7.277 4.385-14.449v-9.369c0-18.279 14.871-33.15 33.149-33.15 18.294 0 33.177 14.871 33.177 33.15v9.502c-.006 7.082.32 8.79 4.401 14.375l.827 1.135c8.537 11.769 7.26 27.8-3.037 38.12-2.924 2.93-2.922 7.674.005 10.601 11.477 11.476 11.475 30.17-.005 41.671-2.924 2.93-2.922 7.675.006 10.602 9.929 9.929 11.459 25.601 3.66 37.232-1.271 1.875-2.826 2.936-4.795 4.278-3.675 2.507-8.707 5.94-10.062 14.392-1.928 11.737-12.322 20.588-24.178 20.588-11.862 0-22.243-8.845-24.148-20.583-1.382-8.454-6.401-11.882-10.067-14.385zm16.161 45.495c5.464 2.857 11.623 4.474 18.055 4.474 6.509 0 12.673-1.571 18.117-4.376 13.17 21.452 16.323 45.25 14.275 58.129-.21-.052-.419-.104-.626-.154-6.036-1.485-10.397-2.558-26.215-19.965-1.422-1.564-3.438-2.456-5.551-2.456-.005 0-.01 0-.015 0-2.119.004-4.137.904-5.556 2.478-11.584 12.85-21.047 17.876-26.819 20.116-2.057-12.887 1.105-36.755 14.335-58.246zm-162.484-45.499c-1.967-1.341-3.521-2.4-4.775-4.261-7.832-11.644-6.299-27.313 3.644-37.256 2.927-2.927 2.929-7.671.005-10.601-11.479-11.501-11.481-30.195-.005-41.671 2.927-2.927 2.929-7.671.006-10.601-10.297-10.32-11.574-26.352-3.032-38.126l.821-1.128c4.082-5.586 4.407-7.293 4.402-14.374v-9.505c0-18.279 14.883-33.15 33.178-33.15 18.278 0 33.149 14.871 33.149 33.15v9.371c-.003 7.171.321 8.892 4.386 14.449 0 0 3.177 4.762 4.012 6.654 4.821 10.92 2.588 23.864-6.202 32.654-1.408 1.407-2.198 3.316-2.197 5.307.001 1.99.793 3.898 2.202 5.305 5.572 5.561 8.641 12.954 8.641 20.817 0 7.866-3.07 15.268-8.646 20.844-1.408 1.408-2.198 3.317-2.197 5.308.001 1.99.793 3.899 2.203 5.305 9.948 9.927 11.478 25.592 3.643 37.243-1.262 1.871-2.814 2.931-4.779 4.273-3.665 2.503-8.685 5.931-10.069 14.395-1.903 11.729-12.284 20.575-24.146 20.575-11.878 0-22.271-8.845-24.173-20.561-1.361-8.478-6.395-11.91-10.071-14.416zm16.184 45.505c5.465 2.854 11.625 4.469 18.059 4.469 6.433 0 12.592-1.617 18.055-4.474 13.221 21.478 16.388 45.33 14.336 58.229-.21-.052-.418-.103-.625-.154-6.032-1.48-10.39-2.551-26.216-19.967-1.422-1.564-3.437-2.456-5.551-2.456-.004 0-.008 0-.012 0-2.118.003-4.135.902-5.555 2.473-11.622 12.869-21.085 17.894-26.846 20.128-2.039-12.9 1.139-36.772 14.355-58.248z"/><path d="m357.109 162.312c0 32.974 26.826 59.801 59.8 59.801 32.958 0 59.771-26.827 59.771-59.801 0-32.958-26.813-59.772-59.771-59.772-32.973-.001-59.8 26.813-59.8 59.772zm104.572 0c0 24.703-20.084 44.801-44.771 44.801-24.703 0-44.8-20.098-44.8-44.801 0-24.688 20.097-44.772 44.8-44.772 24.687-.001 44.771 20.084 44.771 44.772z"/><path d="m123.692 27.026h328.82c7.994 0 14.497 6.503 14.497 14.498v39.999c-14.558-9.061-31.727-14.305-50.101-14.305-52.449 0-95.119 42.659-95.119 95.093 0 52.45 42.67 95.122 95.119 95.122 18.374 0 35.543-5.245 50.101-14.309v90.576c0 7.994-6.503 14.497-14.497 14.497h-67.465c-4.143 0-7.5 3.358-7.5 7.5s3.357 7.5 7.5 7.5h67.465c16.265 0 29.497-13.232 29.497-29.497v-102.122c18.449-17.361 29.99-41.989 29.99-69.267 0-27.269-11.541-51.89-29.99-69.246v-51.541c0-16.265-13.232-29.498-29.497-29.498h-328.82c-4.142 0-7.5 3.358-7.5 7.5s3.358 7.5 7.5 7.5zm373.308 135.286c0 44.179-35.929 80.122-80.091 80.122-44.178 0-80.119-35.942-80.119-80.122 0-44.164 35.941-80.093 80.119-80.093 44.162-.001 80.091 35.929 80.091 80.093z"/></g></g></svg>